<svg xmlns="http://www.w3.org/2000/svg" width="260.40362548828125" height="286.1686706542969" viewBox="-31.665386199951172 -43.08873748779297 260.40362548828125 286.1686706542969"><title>Neo4j Graph Visualization</title><desc>Created using Neo4j (http://www.neo4j.com/)</desc><g class="layer relationships"><g class="relationship" transform="translate(95.59436567709636 214.07992357001356) rotate(272.21159755380074)"><path class="outline" fill="#A5ABB6" stroke="none" d="M 25 0.5 L 30.801229995036095 0.5 L 30.801229995036095 -0.5 L 25 -0.5 Z M 76.3637299950361 0.5 L 82.16495999007219 0.5 L 82.16495999007219 3.5 L 89.16495999007219 0 L 82.16495999007219 -3.5 L 82.16495999007219 -0.5 L 76.3637299950361 -0.5 Z"/><text text-anchor="middle" pointer-events="none" font-size="8px" fill="#000000" x="53.582479995036095" y="3" font-family="sans-serif">ACTED_IN</text></g><g class="relationship" transform="translate(195.2451813746424 164.0563300716678) rotate(213.92246523989945)"><path class="outline" fill="#A5ABB6" stroke="none" d="M 25 0.5 L 31.109641534398264 0.5 L 31.109641534398264 -0.5 L 25 -0.5 Z M 76.67214153439826 0.5 L 82.78178306879653 0.5 L 82.78178306879653 3.5 L 89.78178306879653 0 L 82.78178306879653 -3.5 L 82.78178306879653 -0.5 L 76.67214153439826 -0.5 Z"/><text text-anchor="middle" pointer-events="none" font-size="8px" fill="#000000" x="53.890891534398264" y="3" transform="rotate(180 53.890891534398264 0)" font-family="sans-serif">ACTED_IN</text></g><g class="relationship" transform="translate(199.73826486189557 43.209459570765794) rotate(510.3429983027055)"><path class="outline" fill="#A5ABB6" stroke="none" d="M 25 0.5 L 31.105349485071017 0.5 L 31.105349485071017 -0.5 L 25 -0.5 Z M 76.66784948507102 0.5 L 82.77319897014203 0.5 L 82.77319897014203 3.5 L 89.77319897014203 0 L 82.77319897014203 -3.5 L 82.77319897014203 -0.5 L 76.66784948507102 -0.5 Z"/><text text-anchor="middle" pointer-events="none" font-size="8px" fill="#000000" x="53.88659948507102" y="3" transform="rotate(180 53.88659948507102 0)" font-family="sans-serif">ACTED_IN</text></g><g class="relationship" transform="translate(103.9450802901948 -14.088735221023537) rotate(451.98044459853173)"><path class="outline" fill="#A5ABB6" stroke="none" d="M 25 0.5 L 37.69174402024931 0.5 L 37.69174402024931 -0.5 L 25 -0.5 Z M 69.4651815202493 0.5 L 82.15692554049862 0.5 L 82.15692554049862 3.5 L 89.15692554049862 0 L 82.15692554049862 -3.5 L 82.15692554049862 -0.5 L 69.4651815202493 -0.5 Z"/><text text-anchor="middle" pointer-events="none" font-size="8px" fill="#000000" x="53.57846277024931" y="3" transform="rotate(180 53.57846277024931 0)" font-family="sans-serif">WRITE</text></g><g class="relationship" transform="translate(1.3027345354322566 41.46153185270026) rotate(390.6726615241985)"><path class="outline" fill="#A5ABB6" stroke="none" d="M 25 0.5 L 37.9890224491249 0.5 L 37.9890224491249 -0.5 L 25 -0.5 Z M 69.7624599491249 0.5 L 82.7514823982498 0.5 L 82.7514823982498 3.5 L 89.7514823982498 0 L 82.7514823982498 -3.5 L 82.7514823982498 -0.5 L 69.7624599491249 -0.5 Z"/><text text-anchor="middle" pointer-events="none" font-size="8px" fill="#000000" x="53.8757411991249" y="3" font-family="sans-serif">WRITE</text></g><g class="relationship" transform="translate(-2.6653867596002776 151.26344893513266) rotate(333.4658734173024)"><path class="outline" fill="#A5ABB6" stroke="none" d="M 25 0.5 L 30.430907785139837 0.5 L 30.430907785139837 -0.5 L 25 -0.5 Z M 77.32153278513984 0.5 L 82.75244057027967 0.5 L 82.75244057027967 3.5 L 89.75244057027967 0 L 82.75244057027967 -3.5 L 82.75244057027967 -0.5 L 77.32153278513984 -0.5 Z"/><text text-anchor="middle" pointer-events="none" font-size="8px" fill="#000000" x="53.87622028513984" y="3" font-family="sans-serif">DIRECTED</text></g></g><g class="layer nodes"><g class="node" transform="translate(100,100.00000213005272)"><circle class="outline" cx="0" cy="0" r="25" fill="#57C7E3" stroke="#23b3d7" stroke-width="2px"/><text text-anchor="middle" pointer-events="none" font-family="sans-serif" dy="1.5625" font-size="25" fill="#2A2C34"/><text text-anchor="middle" pointer-events="none" font-family="sans-serif" dy="1.5625" font-size="25" fill="#2A2C34"/><text text-anchor="middle" pointer-events="none" font-family="sans-serif" dy="1.5625" font-size="25" fill="#2A2C34"/><text text-anchor="middle" pointer-events="none" x="0" y="-5" font-size="10px" fill="#2A2C34" font-family="sans-serif"> Captain</text><text text-anchor="middle" pointer-events="none" x="0" y="5" font-size="10px" fill="#2A2C34" font-family="sans-serif"> America:</text><text text-anchor="middle" pointer-events="none" x="0" y="15" font-size="10px" fill="#2A2C34" font-family="sans-serif"> The Fi…</text></g><g class="node" transform="translate(95.59436567709636,214.07992357001356)"><circle class="outline" cx="0" cy="0" r="25" fill="#F79767" stroke="#f36924" stroke-width="2px"/><text text-anchor="middle" pointer-events="none" font-family="sans-serif" dy="1.5625" font-size="25" fill="#FFFFFF"/><text text-anchor="middle" pointer-events="none" font-family="sans-serif" dy="1.5625" font-size="25" fill="#FFFFFF"/><text text-anchor="middle" pointer-events="none" x="0" y="0" font-size="10px" fill="#FFFFFF" font-family="sans-serif"> Hugo</text><text text-anchor="middle" pointer-events="none" x="0" y="10" font-size="10px" fill="#FFFFFF" font-family="sans-serif"> Weaving</text></g><g class="node" transform="translate(195.2451813746424,164.0563300716678)"><circle class="outline" cx="0" cy="0" r="25" fill="#F79767" stroke="#f36924" stroke-width="2px"/><text text-anchor="middle" pointer-events="none" font-family="sans-serif" dy="1.5625" font-size="25" fill="#FFFFFF"/><text text-anchor="middle" pointer-events="none" font-family="sans-serif" dy="1.5625" font-size="25" fill="#FFFFFF"/><text text-anchor="middle" pointer-events="none" x="0" y="0" font-size="10px" fill="#FFFFFF" font-family="sans-serif"> Chris</text><text text-anchor="middle" pointer-events="none" x="0" y="10" font-size="10px" fill="#FFFFFF" font-family="sans-serif"> Evans</text></g><g class="node" transform="translate(199.73826486189557,43.209459570765794)"><circle class="outline" cx="0" cy="0" r="25" fill="#F79767" stroke="#f36924" stroke-width="2px"/><text text-anchor="middle" pointer-events="none" font-family="sans-serif" dy="1.5625" font-size="25" fill="#FFFFFF"/><text text-anchor="middle" pointer-events="none" font-family="sans-serif" dy="1.5625" font-size="25" fill="#FFFFFF"/><text text-anchor="middle" pointer-events="none" font-family="sans-serif" dy="1.5625" font-size="25" fill="#FFFFFF"/><text text-anchor="middle" pointer-events="none" x="0" y="-5" font-size="10px" fill="#FFFFFF" font-family="sans-serif"> Samuel</text><text text-anchor="middle" pointer-events="none" x="0" y="5" font-size="10px" fill="#FFFFFF" font-family="sans-serif"> L.</text><text text-anchor="middle" pointer-events="none" x="0" y="15" font-size="10px" fill="#FFFFFF" font-family="sans-serif"> Jackson</text></g><g class="node" transform="translate(103.9450802901948,-14.088735221023537)"><circle class="outline" cx="0" cy="0" r="25" fill="#F79767" stroke="#f36924" stroke-width="2px"/><text text-anchor="middle" pointer-events="none" font-family="sans-serif" dy="1.5625" font-size="25" fill="#FFFFFF"/><text text-anchor="middle" pointer-events="none" x="0" y="5" font-size="10px" fill="#FFFFFF" font-family="sans-serif"> Christop…</text></g><g class="node" transform="translate(1.3027345354322566,41.46153185270026)"><circle class="outline" cx="0" cy="0" r="25" fill="#F79767" stroke="#f36924" stroke-width="2px"/><text text-anchor="middle" pointer-events="none" font-family="sans-serif" dy="1.5625" font-size="25" fill="#FFFFFF"/><text text-anchor="middle" pointer-events="none" font-family="sans-serif" dy="1.5625" font-size="25" fill="#FFFFFF"/><text text-anchor="middle" pointer-events="none" x="0" y="0" font-size="10px" fill="#FFFFFF" font-family="sans-serif"> Stephen</text><text text-anchor="middle" pointer-events="none" x="0" y="10" font-size="10px" fill="#FFFFFF" font-family="sans-serif"> McFeely</text></g><g class="node" transform="translate(-2.6653867596002776,151.26344893513266)"><circle class="outline" cx="0" cy="0" r="25" fill="#F79767" stroke="#f36924" stroke-width="2px"/><text text-anchor="middle" pointer-events="none" font-family="sans-serif" dy="1.5625" font-size="25" fill="#FFFFFF"/><text text-anchor="middle" pointer-events="none" font-family="sans-serif" dy="1.5625" font-size="25" fill="#FFFFFF"/><text text-anchor="middle" pointer-events="none" x="0" y="0" font-size="10px" fill="#FFFFFF" font-family="sans-serif"> Joe</text><text text-anchor="middle" pointer-events="none" x="0" y="10" font-size="10px" fill="#FFFFFF" font-family="sans-serif"> Johnston</text></g></g></svg>