<svg xmlns="http://www.w3.org/2000/svg" width="990.0237426757812" height="1026.304931640625" viewBox="-398.13006591796875 -383.3097839355469 990.0237426757812 1026.304931640625"><title>Neo4j Graph Visualization</title><desc>Created using Neo4j (http://www.neo4j.com/)</desc><g class="layer relationships"><g class="relationship" transform="translate(-125.56503618793914 -44.497371266981) rotate(442.66166662350736)"><path class="outline" fill="#A5ABB6" stroke="none" d="M 25 0.5 L 46.910197380976555 0.5 L 46.910197380976555 -0.5 L 25 -0.5 Z M 92.47269738097656 0.5 L 114.38289476195311 0.5 L 114.38289476195311 3.5 L 121.38289476195311 0 L 114.38289476195311 -3.5 L 114.38289476195311 -0.5 L 92.47269738097656 -0.5 Z"/><text text-anchor="middle" pointer-events="none" font-size="8px" fill="#000000" x="69.69144738097656" y="3" font-family="sans-serif">ACTED_IN</text></g><g class="relationship" transform="translate(-186.72103298087552 -7.482913620732393) rotate(413.5643870200585)"><path class="outline" fill="#A5ABB6" stroke="none" d="M 25 0.5 L 40.94442543644686 0.5 L 40.94442543644686 -0.5 L 25 -0.5 Z M 86.50692543644686 0.5 L 102.45135087289373 0.5 L 102.45135087289373 3.5 L 109.45135087289373 0 L 102.45135087289373 -3.5 L 102.45135087289373 -0.5 L 86.50692543644686 -0.5 Z"/><text text-anchor="middle" pointer-events="none" font-size="8px" fill="#000000" x="63.72567543644686" y="3" font-family="sans-serif">ACTED_IN</text></g><g class="relationship" transform="translate(-13.676143278657634 4.198697066000485) rotate(494.00443977792423)"><path class="outline" fill="#A5ABB6" stroke="none" d="M 25 0.5 L 40.79070658976623 0.5 L 40.79070658976623 -0.5 L 25 -0.5 Z M 86.35320658976623 0.5 L 102.14391317953246 0.5 L 102.14391317953246 3.5 L 109.14391317953246 0 L 102.14391317953246 -3.5 L 102.14391317953246 -0.5 L 86.35320658976623 -0.5 Z"/><text text-anchor="middle" pointer-events="none" font-size="8px" fill="#000000" x="63.57195658976623" y="3" transform="rotate(180 63.57195658976623 0)" font-family="sans-serif">ACTED_IN</text></g><g class="relationship" transform="translate(-63.591221146477935 -38.2792151047274) rotate(467.2975874498311)"><path class="outline" fill="#A5ABB6" stroke="none" d="M 25 0.5 L 45.82889680065399 0.5 L 45.82889680065399 -0.5 L 25 -0.5 Z M 92.719521800654 0.5 L 113.54841860130799 0.5 L 113.54841860130799 3.5 L 120.54841860130799 0 L 113.54841860130799 -3.5 L 113.54841860130799 -0.5 L 92.719521800654 -0.5 Z"/><text text-anchor="middle" pointer-events="none" font-size="8px" fill="#000000" x="69.274209300654" y="3" transform="rotate(180 69.274209300654 0)" font-family="sans-serif">DIRECTED</text></g><g class="relationship" transform="translate(562.8936815778058 212.8135775189976) rotate(516.7734556485641)"><path class="outline" fill="#A5ABB6" stroke="none" d="M 25 0.5 L 33.41378069582609 0.5 L 33.41378069582609 -0.5 L 25 -0.5 Z M 80.30440569582609 0.5 L 88.71818639165218 0.5 L 88.71818639165218 3.5 L 95.71818639165218 0 L 88.71818639165218 -3.5 L 88.71818639165218 -0.5 L 80.30440569582609 -0.5 Z"/><text text-anchor="middle" pointer-events="none" font-size="8px" fill="#000000" x="56.85909319582609" y="3" transform="rotate(180 56.85909319582609 0)" font-family="sans-serif">DIRECTED</text></g><g class="relationship" transform="translate(526.2999102269791 149.023996704465) rotate(483.7170904817686)"><path class="outline" fill="#A5ABB6" stroke="none" d="M 25 0.5 L 40.681037883123054 0.5 L 40.681037883123054 -0.5 L 25 -0.5 Z M 86.24353788312305 0.5 L 101.92457576624611 0.5 L 101.92457576624611 3.5 L 108.92457576624611 0 L 101.92457576624611 -3.5 L 101.92457576624611 -0.5 L 86.24353788312305 -0.5 Z"/><text text-anchor="middle" pointer-events="none" font-size="8px" fill="#000000" x="63.462287883123054" y="3" transform="rotate(180 63.462287883123054 0)" font-family="sans-serif">ACTED_IN</text></g><g class="relationship" transform="translate(413.24149224648886 120.86939728080975) rotate(434.4935887612787)"><path class="outline" fill="#A5ABB6" stroke="none" d="M 25 0.5 L 46.130255701301195 0.5 L 46.130255701301195 -0.5 L 25 -0.5 Z M 91.6927557013012 0.5 L 112.82301140260239 0.5 L 112.82301140260239 3.5 L 119.82301140260239 0 L 112.82301140260239 -3.5 L 112.82301140260239 -0.5 L 91.6927557013012 -0.5 Z"/><text text-anchor="middle" pointer-events="none" font-size="8px" fill="#000000" x="68.9115057013012" y="3" font-family="sans-serif">ACTED_IN</text></g><g class="relationship" transform="translate(366.72757879066415 161.8279374426791) rotate(409.1571995508921)"><path class="outline" fill="#A5ABB6" stroke="none" d="M 25 0.5 L 38.8820777178487 0.5 L 38.8820777178487 -0.5 L 25 -0.5 Z M 84.4445777178487 0.5 L 98.3266554356974 0.5 L 98.3266554356974 3.5 L 105.3266554356974 0 L 98.3266554356974 -3.5 L 98.3266554356974 -0.5 L 84.4445777178487 -0.5 Z"/><text text-anchor="middle" pointer-events="none" font-size="8px" fill="#000000" x="61.6633277178487" y="3" font-family="sans-serif">ACTED_IN</text></g><g class="relationship" transform="translate(473.14960332704055 117.6515824203695) rotate(458.44236790691787)"><path class="outline" fill="#A5ABB6" stroke="none" d="M 25 0.5 L 45.88541884679921 0.5 L 45.88541884679921 -0.5 L 25 -0.5 Z M 91.44791884679921 0.5 L 112.33333769359842 0.5 L 112.33333769359842 3.5 L 119.33333769359842 0 L 112.33333769359842 -3.5 L 112.33333769359842 -0.5 L 91.44791884679921 -0.5 Z"/><text text-anchor="middle" pointer-events="none" font-size="8px" fill="#000000" x="68.66666884679921" y="3" transform="rotate(180 68.66666884679921 0)" font-family="sans-serif">ACTED_IN</text></g><g class="relationship" transform="translate(-258.70545469104167 140.23956134432484) rotate(449.082850303268)"><path class="outline" fill="#A5ABB6" stroke="none" d="M 25 0.5 L 37.580103201419995 0.5 L 37.580103201419995 -0.5 L 25 -0.5 Z M 83.14260320142 0.5 L 95.72270640283999 0.5 L 95.72270640283999 3.5 L 102.72270640283999 0 L 95.72270640283999 -3.5 L 95.72270640283999 -0.5 L 83.14260320142 -0.5 Z"/><text text-anchor="middle" pointer-events="none" font-size="8px" fill="#000000" x="60.361353201419995" y="3" font-family="sans-serif">ACTED_IN</text></g><g class="relationship" transform="translate(-369.1300638087002 227.97530706992) rotate(379.56481033248156)"><path class="outline" fill="#A5ABB6" stroke="none" d="M 25 0.5 L 33.398998095113036 0.5 L 33.398998095113036 -0.5 L 25 -0.5 Z M 78.96149809511303 0.5 L 87.36049619022607 0.5 L 87.36049619022607 3.5 L 94.36049619022607 0 L 87.36049619022607 -3.5 L 87.36049619022607 -0.5 L 78.96149809511303 -0.5 Z"/><text text-anchor="middle" pointer-events="none" font-size="8px" fill="#000000" x="56.180248095113036" y="3" font-family="sans-serif">ACTED_IN</text></g><g class="relationship" transform="translate(-330.36627465070643 155.5458801898232) rotate(416.74552936739434)"><path class="outline" fill="#A5ABB6" stroke="none" d="M 25 0.5 L 40.26001811822957 0.5 L 40.26001811822957 -0.5 L 25 -0.5 Z M 87.15064311822957 0.5 L 102.41066123645913 0.5 L 102.41066123645913 3.5 L 109.41066123645913 0 L 102.41066123645913 -3.5 L 102.41066123645913 -0.5 L 87.15064311822957 -0.5 Z"/><text text-anchor="middle" pointer-events="none" font-size="8px" fill="#000000" x="63.70533061822957" y="3" font-family="sans-serif">DIRECTED</text></g><g class="relationship" transform="translate(262.5677455901647 426.48206368288754) rotate(409.75934487554935)"><path class="outline" fill="#A5ABB6" stroke="none" d="M 25 0.5 L 29.435509620325234 0.5 L 29.435509620325234 -0.5 L 25 -0.5 Z M 74.99800962032523 0.5 L 79.43351924065047 0.5 L 79.43351924065047 3.5 L 86.43351924065047 0 L 79.43351924065047 -3.5 L 79.43351924065047 -0.5 L 74.99800962032523 -0.5 Z"/><text text-anchor="middle" pointer-events="none" font-size="8px" fill="#000000" x="52.216759620325234" y="3" font-family="sans-serif">ACTED_IN</text></g><g class="relationship" transform="translate(419.5373311675905 580.8168122747447) rotate(219.18477414342038)"><path class="outline" fill="#A5ABB6" stroke="none" d="M 25 0.5 L 28.5389200731424 0.5 L 28.5389200731424 -0.5 L 25 -0.5 Z M 74.1014200731424 0.5 L 77.6403401462848 0.5 L 77.6403401462848 3.5 L 84.6403401462848 0 L 77.6403401462848 -3.5 L 77.6403401462848 -0.5 L 74.1014200731424 -0.5 Z"/><text text-anchor="middle" pointer-events="none" font-size="8px" fill="#000000" x="51.3201700731424" y="3" transform="rotate(180 51.3201700731424 0)" font-family="sans-serif">ACTED_IN</text></g><g class="relationship" transform="translate(452.42443030492905 480.8092025661388) rotate(525.3857672991778)"><path class="outline" fill="#A5ABB6" stroke="none" d="M 25 0.5 L 34.62461037868036 0.5 L 34.62461037868036 -0.5 L 25 -0.5 Z M 80.18711037868036 0.5 L 89.81172075736072 0.5 L 89.81172075736072 3.5 L 96.81172075736072 0 L 89.81172075736072 -3.5 L 89.81172075736072 -0.5 L 80.18711037868036 -0.5 Z"/><text text-anchor="middle" pointer-events="none" font-size="8px" fill="#000000" x="57.40586037868036" y="3" transform="rotate(180 57.40586037868036 0)" font-family="sans-serif">ACTED_IN</text></g><g class="relationship" transform="translate(412.3407539752298 416.4958607136453) rotate(489.2969070741228)"><path class="outline" fill="#A5ABB6" stroke="none" d="M 25 0.5 L 34.46492738466272 0.5 L 34.46492738466272 -0.5 L 25 -0.5 Z M 81.35555238466273 0.5 L 90.82047976932544 0.5 L 90.82047976932544 3.5 L 97.82047976932544 0 L 90.82047976932544 -3.5 L 90.82047976932544 -0.5 L 81.35555238466273 -0.5 Z"/><text text-anchor="middle" pointer-events="none" font-size="8px" fill="#000000" x="57.91023988466272" y="3" transform="rotate(180 57.91023988466272 0)" font-family="sans-serif">DIRECTED</text></g><g class="relationship" transform="translate(281.9655999001942 613.99513391022) rotate(297.1713017230438)"><path class="outline" fill="#A5ABB6" stroke="none" d="M 25 0.5 L 36.19334052453732 0.5 L 36.19334052453732 -0.5 L 25 -0.5 Z M 71.96677802453732 0.5 L 83.16011854907464 0.5 L 83.16011854907464 3.5 L 90.16011854907464 0 L 83.16011854907464 -3.5 L 83.16011854907464 -0.5 L 71.96677802453732 -0.5 Z"/><text text-anchor="middle" pointer-events="none" font-size="8px" fill="#000000" x="54.08005927453732" y="3" font-family="sans-serif">WROTE</text></g><g class="relationship" transform="translate(338.9362952759627 387.36004591621054) rotate(452.0211844403751)"><path class="outline" fill="#A5ABB6" stroke="none" d="M 25 0.5 L 32.73974901849951 0.5 L 32.73974901849951 -0.5 L 25 -0.5 Z M 84.52099901849951 0.5 L 92.26074803699902 0.5 L 92.26074803699902 3.5 L 99.26074803699902 0 L 92.26074803699902 -3.5 L 92.26074803699902 -0.5 L 84.52099901849951 -0.5 Z"/><text text-anchor="middle" pointer-events="none" font-size="8px" fill="#000000" x="58.63037401849951" y="3" transform="rotate(180 58.63037401849951 0)" font-family="sans-serif">PRODUCED</text></g><g class="relationship" transform="translate(219.18450744621748 542.6505777985911) rotate(344.91014622302134)"><path class="outline" fill="#A5ABB6" stroke="none" d="M 25 0.5 L 31.90875152641113 0.5 L 31.90875152641113 -0.5 L 25 -0.5 Z M 80.58062652641112 0.5 L 87.48937805282226 0.5 L 87.48937805282226 3.5 L 94.48937805282226 0 L 87.48937805282226 -3.5 L 87.48937805282226 -0.5 L 80.58062652641112 -0.5 Z"/><text text-anchor="middle" pointer-events="none" font-size="8px" fill="#000000" x="56.24468902641113" y="3" font-family="sans-serif">REVIEWED</text></g><g class="relationship" transform="translate(-361.2992532946214 410.0350932326107) rotate(396.93502523699834)"><path class="outline" fill="#A5ABB6" stroke="none" d="M 25 0.5 L 26.769329677639455 0.5 L 26.769329677639455 -0.5 L 25 -0.5 Z M 72.33182967763946 0.5 L 74.10115935527891 0.5 L 74.10115935527891 3.5 L 81.10115935527891 0 L 74.10115935527891 -3.5 L 74.10115935527891 -0.5 L 72.33182967763946 -0.5 Z"/><text text-anchor="middle" pointer-events="none" font-size="8px" fill="#000000" x="49.550579677639455" y="3" font-family="sans-serif">ACTED_IN</text></g><g class="relationship" transform="translate(-98.31692916949505 266.9284184943856) rotate(316.93644021238873)"><path class="outline" fill="#A5ABB6" stroke="none" d="M 25 0.5 L 136.36786749619225 0.5 L 136.36786749619225 -0.5 L 25 -0.5 Z M 181.93036749619225 0.5 L 293.2982349923845 0.5 L 293.2982349923845 3.5 L 300.2982349923845 0 L 293.2982349923845 -3.5 L 293.2982349923845 -0.5 L 181.93036749619225 -0.5 Z"/><text text-anchor="middle" pointer-events="none" font-size="8px" fill="#000000" x="159.14911749619225" y="3" font-family="sans-serif">ACTED_IN</text></g><g class="relationship" transform="translate(-34.86262158299097 300.4004322744071) rotate(304.2780787151007)"><path class="outline" fill="#A5ABB6" stroke="none" d="M 25 0.5 L 128.37467257170252 0.5 L 128.37467257170252 -0.5 L 25 -0.5 Z M 173.93717257170252 0.5 L 277.31184514340504 0.5 L 277.31184514340504 3.5 L 284.31184514340504 0 L 277.31184514340504 -3.5 L 277.31184514340504 -0.5 L 173.93717257170252 -0.5 Z"/><text text-anchor="middle" pointer-events="none" font-size="8px" fill="#000000" x="151.15592257170252" y="3" font-family="sans-serif">ACTED_IN</text></g><g class="relationship" transform="translate(-88.68927063816304 326.1212353800887) rotate(309.0288030644187)"><path class="outline" fill="#A5ABB6" stroke="none" d="M 25 0.5 L 154.7813007760111 0.5 L 154.7813007760111 -0.5 L 25 -0.5 Z M 200.3438007760111 0.5 L 330.1251015520222 0.5 L 330.1251015520222 3.5 L 337.1251015520222 0 L 330.1251015520222 -3.5 L 330.1251015520222 -0.5 L 200.3438007760111 -0.5 Z"/><text text-anchor="middle" pointer-events="none" font-size="8px" fill="#000000" x="177.5625507760111" y="3" font-family="sans-serif">ACTED_IN</text></g><g class="relationship" transform="translate(91.60150614826424 358.6012420451373) rotate(278.6512582921053)"><path class="outline" fill="#A5ABB6" stroke="none" d="M 25 0.5 L 132.41914408550284 0.5 L 132.41914408550284 -0.5 L 25 -0.5 Z M 177.98164408550284 0.5 L 285.4007881710057 0.5 L 285.4007881710057 3.5 L 292.4007881710057 0 L 285.4007881710057 -3.5 L 285.4007881710057 -0.5 L 177.98164408550284 -0.5 Z"/><text text-anchor="middle" pointer-events="none" font-size="8px" fill="#000000" x="155.20039408550284" y="3" font-family="sans-serif">ACTED_IN</text></g><g class="relationship" transform="translate(135.94961141591858 318.6729811495866) rotate(270.71030468120335)"><path class="outline" fill="#A5ABB6" stroke="none" d="M 25 0.5 L 109.99581400344826 0.5 L 109.99581400344826 -0.5 L 25 -0.5 Z M 156.88643900344826 0.5 L 241.88225300689652 0.5 L 241.88225300689652 3.5 L 248.88225300689652 0 L 241.88225300689652 -3.5 L 241.88225300689652 -0.5 L 156.88643900344826 -0.5 Z"/><text text-anchor="middle" pointer-events="none" font-size="8px" fill="#000000" x="133.44112650344826" y="3" font-family="sans-serif">DIRECTED</text></g><g class="relationship" transform="translate(148.16008386234722 376.89219897221096) rotate(268.4794192859043)"><path class="outline" fill="#A5ABB6" stroke="none" d="M 25 0.5 L 139.15339022586642 0.5 L 139.15339022586642 -0.5 L 25 -0.5 Z M 186.04401522586642 0.5 L 300.19740545173283 0.5 L 300.19740545173283 3.5 L 307.19740545173283 0 L 300.19740545173283 -3.5 L 300.19740545173283 -0.5 L 186.04401522586642 -0.5 Z"/><text text-anchor="middle" pointer-events="none" font-size="8px" fill="#000000" x="162.59870272586642" y="3" transform="rotate(180 162.59870272586642 0)" font-family="sans-serif">DIRECTED</text></g><g class="relationship" transform="translate(69.93208073269545 298.66399849228765) rotate(285.2930059564002)"><path class="outline" fill="#A5ABB6" stroke="none" d="M 25 0.5 L 102.19498323052235 0.5 L 102.19498323052235 -0.5 L 25 -0.5 Z M 153.97623323052235 0.5 L 231.1712164610447 0.5 L 231.1712164610447 3.5 L 238.1712164610447 0 L 231.1712164610447 -3.5 L 231.1712164610447 -0.5 L 153.97623323052235 -0.5 Z"/><text text-anchor="middle" pointer-events="none" font-size="8px" fill="#000000" x="128.08560823052235" y="3" font-family="sans-serif">PRODUCED</text></g><g class="relationship" transform="translate(-98.31692916949505 266.9284184943856) rotate(539.6318343652329)"><path class="outline" fill="#A5ABB6" stroke="none" d="M 25 0.5 L 52.892444251464696 0.5 L 52.892444251464696 -0.5 L 25 -0.5 Z M 98.4549442514647 0.5 L 126.34738850292939 0.5 L 126.34738850292939 3.5 L 133.3473885029294 0 L 126.34738850292939 -3.5 L 126.34738850292939 -0.5 L 98.4549442514647 -0.5 Z"/><text text-anchor="middle" pointer-events="none" font-size="8px" fill="#000000" x="75.6736942514647" y="3" transform="rotate(180 75.6736942514647 0)" font-family="sans-serif">ACTED_IN</text></g><g class="relationship" transform="translate(91.60150614826424 358.6012420451373) rotate(344.75954901640284)"><path class="outline" fill="#A5ABB6" stroke="none" d="M 25 0.5 L 160.46534758997532 0.5 L 160.46534758997532 -0.5 L 25 -0.5 Z M 206.02784758997532 0.5 L 341.49319517995065 0.5 L 341.49319517995065 3.5 L 348.49319517995065 0 L 341.49319517995065 -3.5 L 341.49319517995065 -0.5 L 206.02784758997532 -0.5 Z"/><text text-anchor="middle" pointer-events="none" font-size="8px" fill="#000000" x="183.24659758997532" y="3" font-family="sans-serif">ACTED_IN</text></g><g class="relationship" transform="translate(135.94961141591858 318.6729811495866) rotate(349.55555837116935)"><path class="outline" fill="#A5ABB6" stroke="none" d="M 24.018736134675446,6.953439040707552 L 24.277555179777966,5.987513214418485 A 524.5693664189673 524.5693664189673 0 0 0 131.29790944289553,23.07343923137205 L 131.2431060363609,24.07193639543027 A 525.5693664189673 525.5693664189673 0 0 1 24.018736134675446,6.953439040707552 Z M 183.0518744333013,24.358022938662657 L 183.0081013783691,23.35898143819236 A 524.5693664189673 524.5693664189673 0 0 0 290.2106195148644,7.4559880201488475 L 289.4662116434112,4.5498123680385785 L 297.11576401503055,6.20339892877648 L 291.2031633434686,11.330888889629206 L 290.4587554720154,8.424713237518937 A 525.5693664189673 525.5693664189673 0 0 1 183.0518744333013,24.358022938662657"/><text text-anchor="middle" pointer-events="none" font-size="8px" fill="#000000" x="157.14672380620607" y="27.353775860247765" font-family="sans-serif">PRODUCED</text></g><g class="relationship" transform="translate(135.94961141591858 318.6729811495866) rotate(349.55555837116935)"><path class="outline" fill="#A5ABB6" stroke="none" d="M 24.018736134675446,-6.953439040707552 L 24.277555179777966,-5.987513214418485 A 524.5693664189673 524.5693664189673 0 0 1 139.2852075923003,-23.450792891911306 L 139.24563057651724,-24.450009414904116 A 525.5693664189673 525.5693664189673 0 0 0 24.018736134675446,-6.953439040707552 Z M 175.0456626173584,-24.647696172012616 L 175.01712296895158,-23.64810351074061 A 524.5693664189673 524.5693664189673 0 0 1 290.2106195148644,-7.4559880201488475 L 289.4662116434112,-4.5498123680385785 L 297.11576401503055,-6.20339892877648 L 291.2031633434686,-11.330888889629206 L 290.4587554720154,-8.424713237518937 A 525.5693664189673 525.5693664189673 0 0 0 175.0456626173584,-24.647696172012616"/><text text-anchor="middle" pointer-events="none" font-size="8px" fill="#000000" x="157.14672380620593" y="-21.353775860247765" font-family="sans-serif">WROTE</text></g><g class="relationship" transform="translate(148.16008386234722 376.89219897221096) rotate(339.0240607413556)"><path class="outline" fill="#A5ABB6" stroke="none" d="M 24.018736134675446,6.953439040707552 L 24.277555179777966,5.987513214418485 A 532.3781869985909 532.3781869985909 0 0 0 133.31073377551277,23.350652548769858 L 133.25671872362125,24.349192670231673 A 533.3781869985909 533.3781869985909 0 0 1 24.018736134675446,6.953439040707552 Z M 185.065394775963,24.631810087657186 L 185.02227672921046,23.632740103099422 A 532.3781869985909 532.3781869985909 0 0 0 294.2383934055809,7.46015526433919 L 293.49359641279705,4.5540793122105825 L 301.1433701260116,6.2066416065317265 L 295.23145606262597,11.334923200510666 L 294.4866590698421,8.42884724838206 A 533.3781869985909 533.3781869985909 0 0 1 185.065394775963,24.631810087657186"/><text text-anchor="middle" pointer-events="none" font-size="8px" fill="#000000" x="159.16035070456425" y="27.619931719164015" font-family="sans-serif">PRODUCED</text></g><g class="relationship" transform="translate(148.16008386234722 376.89219897221096) rotate(339.0240607413556)"><path class="outline" fill="#A5ABB6" stroke="none" d="M 24.018736134675446,-6.953439040707552 L 24.277555179777966,-5.987513214418485 A 532.3781869985909 532.3781869985909 0 0 1 141.29839969093413,-23.722597356304277 L 141.2593883828294,-24.721836125488153 A 533.3781869985909 533.3781869985909 0 0 0 24.018736134675446,-6.953439040707552 Z M 177.05913594274259,-24.917124501312287 L 177.0310283689122,-23.917519597216028 A 532.3781869985909 532.3781869985909 0 0 1 294.2383934055809,-7.46015526433919 L 293.49359641279705,-4.5540793122105825 L 301.1433701260116,-6.2066416065317265 L 295.23145606262597,-11.334923200510666 L 294.4866590698421,-8.42884724838206 A 533.3781869985909 533.3781869985909 0 0 0 177.05913594274259,-24.917124501312287"/><text text-anchor="middle" pointer-events="none" font-size="8px" fill="#000000" x="159.16035070456414" y="-21.619931719164015" font-family="sans-serif">WROTE</text></g><g class="relationship" transform="translate(69.93208073269545 298.66399849228765) rotate(354.28341681055076)"><path class="outline" fill="#A5ABB6" stroke="none" d="M 25 0.5 L 162.57772221713088 0.5 L 162.57772221713088 -0.5 L 25 -0.5 Z M 214.35897221713088 0.5 L 351.93669443426177 0.5 L 351.93669443426177 3.5 L 358.93669443426177 0 L 351.93669443426177 -3.5 L 351.93669443426177 -0.5 L 214.35897221713088 -0.5 Z"/><text text-anchor="middle" pointer-events="none" font-size="8px" fill="#000000" x="188.46834721713088" y="3" font-family="sans-serif">PRODUCED</text></g><g class="relationship" transform="translate(91.60150614826424 358.6012420451373) rotate(392.1910586224568)"><path class="outline" fill="#A5ABB6" stroke="none" d="M 25 0.5 L 117.26065924428906 0.5 L 117.26065924428906 -0.5 L 25 -0.5 Z M 162.82315924428906 0.5 L 255.08381848857812 0.5 L 255.08381848857812 3.5 L 262.0838184885781 0 L 255.08381848857812 -3.5 L 255.08381848857812 -0.5 L 162.82315924428906 -0.5 Z"/><text text-anchor="middle" pointer-events="none" font-size="8px" fill="#000000" x="140.04190924428906" y="3" font-family="sans-serif">ACTED_IN</text></g><g class="relationship" transform="translate(135.94961141591858 318.6729811495866) rotate(404.16089305398646)"><path class="outline" fill="#A5ABB6" stroke="none" d="M 25 0.5 L 111.47671631885717 0.5 L 111.47671631885717 -0.5 L 25 -0.5 Z M 158.36734131885717 0.5 L 244.84405763771434 0.5 L 244.84405763771434 3.5 L 251.84405763771434 0 L 244.84405763771434 -3.5 L 244.84405763771434 -0.5 L 158.36734131885717 -0.5 Z"/><text text-anchor="middle" pointer-events="none" font-size="8px" fill="#000000" x="134.92202881885717" y="3" font-family="sans-serif">DIRECTED</text></g><g class="relationship" transform="translate(148.16008386234722 376.89219897221096) rotate(395.844449211775)"><path class="outline" fill="#A5ABB6" stroke="none" d="M 25 0.5 L 88.02595004279912 0.5 L 88.02595004279912 -0.5 L 25 -0.5 Z M 134.91657504279914 0.5 L 197.94252508559825 0.5 L 197.94252508559825 3.5 L 204.94252508559825 0 L 197.94252508559825 -3.5 L 197.94252508559825 -0.5 L 134.91657504279914 -0.5 Z"/><text text-anchor="middle" pointer-events="none" font-size="8px" fill="#000000" x="111.47126254279912" y="3" font-family="sans-serif">DIRECTED</text></g><g class="relationship" transform="translate(-98.31692916949505 266.9284184943856) rotate(436.3933506080383)"><path class="outline" fill="#A5ABB6" stroke="none" d="M 25 0.5 L 88.96605649642473 0.5 L 88.96605649642473 -0.5 L 25 -0.5 Z M 134.52855649642473 0.5 L 198.49461299284945 0.5 L 198.49461299284945 3.5 L 205.49461299284945 0 L 198.49461299284945 -3.5 L 198.49461299284945 -0.5 L 134.52855649642473 -0.5 Z"/><text text-anchor="middle" pointer-events="none" font-size="8px" fill="#000000" x="111.74730649642473" y="3" font-family="sans-serif">ACTED_IN</text></g><g class="relationship" transform="translate(-34.86262158299097 300.4004322744071) rotate(452.77291220633714)"><path class="outline" fill="#A5ABB6" stroke="none" d="M 25 0.5 L 69.10717304382972 0.5 L 69.10717304382972 -0.5 L 25 -0.5 Z M 114.66967304382972 0.5 L 158.77684608765944 0.5 L 158.77684608765944 3.5 L 165.77684608765944 0 L 158.77684608765944 -3.5 L 158.77684608765944 -0.5 L 114.66967304382972 -0.5 Z"/><text text-anchor="middle" pointer-events="none" font-size="8px" fill="#000000" x="91.88842304382972" y="3" transform="rotate(180 91.88842304382972 0)" font-family="sans-serif">ACTED_IN</text></g><g class="relationship" transform="translate(-88.68927063816304 326.1212353800887) rotate(434.86045717049115)"><path class="outline" fill="#A5ABB6" stroke="none" d="M 25 0.5 L 59.09838724288615 0.5 L 59.09838724288615 -0.5 L 25 -0.5 Z M 104.66088724288615 0.5 L 138.7592744857723 0.5 L 138.7592744857723 3.5 L 145.7592744857723 0 L 138.7592744857723 -3.5 L 138.7592744857723 -0.5 L 104.66088724288615 -0.5 Z"/><text text-anchor="middle" pointer-events="none" font-size="8px" fill="#000000" x="81.87963724288615" y="3" font-family="sans-serif">ACTED_IN</text></g><g class="relationship" transform="translate(91.60150614826424 358.6012420451373) rotate(495.7140675524391)"><path class="outline" fill="#A5ABB6" stroke="none" d="M 25 0.5 L 68.49471963799725 0.5 L 68.49471963799725 -0.5 L 25 -0.5 Z M 114.05721963799725 0.5 L 157.5519392759945 0.5 L 157.5519392759945 3.5 L 164.5519392759945 0 L 157.5519392759945 -3.5 L 157.5519392759945 -0.5 L 114.05721963799725 -0.5 Z"/><text text-anchor="middle" pointer-events="none" font-size="8px" fill="#000000" x="91.27596963799725" y="3" transform="rotate(180 91.27596963799725 0)" font-family="sans-serif">ACTED_IN</text></g><g class="relationship" transform="translate(135.94961141591858 318.6729811495866) rotate(496.26185386565925)"><path class="outline" fill="#A5ABB6" stroke="none" d="M 25 0.5 L 97.64970707065108 0.5 L 97.64970707065108 -0.5 L 25 -0.5 Z M 144.54033207065106 0.5 L 217.19003914130215 0.5 L 217.19003914130215 3.5 L 224.19003914130215 0 L 217.19003914130215 -3.5 L 217.19003914130215 -0.5 L 144.54033207065106 -0.5 Z"/><text text-anchor="middle" pointer-events="none" font-size="8px" fill="#000000" x="121.09501957065108" y="3" transform="rotate(180 121.09501957065108 0)" font-family="sans-serif">DIRECTED</text></g><g class="relationship" transform="translate(148.16008386234722 376.89219897221096) rotate(509.31965757236736)"><path class="outline" fill="#A5ABB6" stroke="none" d="M 25 0.5 L 84.82556081300653 0.5 L 84.82556081300653 -0.5 L 25 -0.5 Z M 131.71618581300652 0.5 L 191.54174662601307 0.5 L 191.54174662601307 3.5 L 198.54174662601307 0 L 191.54174662601307 -3.5 L 191.54174662601307 -0.5 L 131.71618581300652 -0.5 Z"/><text text-anchor="middle" pointer-events="none" font-size="8px" fill="#000000" x="108.27087331300653" y="3" transform="rotate(180 108.27087331300653 0)" font-family="sans-serif">DIRECTED</text></g><g class="relationship" transform="translate(69.93208073269545 298.66399849228765) rotate(480.66708278393696)"><path class="outline" fill="#A5ABB6" stroke="none" d="M 25 0.5 L 82.38692645500757 0.5 L 82.38692645500757 -0.5 L 25 -0.5 Z M 134.16817645500757 0.5 L 191.55510291001514 0.5 L 191.55510291001514 3.5 L 198.55510291001514 0 L 191.55510291001514 -3.5 L 191.55510291001514 -0.5 L 134.16817645500757 -0.5 Z"/><text text-anchor="middle" pointer-events="none" font-size="8px" fill="#000000" x="108.27755145500757" y="3" transform="rotate(180 108.27755145500757 0)" font-family="sans-serif">PRODUCED</text></g><g class="relationship" transform="translate(-98.31692916949505 266.9284184943856) rotate(490.73864053196826)"><path class="outline" fill="#A5ABB6" stroke="none" d="M 25 0.5 L 110.22749051606678 0.5 L 110.22749051606678 -0.5 L 25 -0.5 Z M 155.78999051606678 0.5 L 241.01748103213356 0.5 L 241.01748103213356 3.5 L 248.01748103213356 0 L 241.01748103213356 -3.5 L 241.01748103213356 -0.5 L 155.78999051606678 -0.5 Z"/><text text-anchor="middle" pointer-events="none" font-size="8px" fill="#000000" x="133.00874051606678" y="3" transform="rotate(180 133.00874051606678 0)" font-family="sans-serif">ACTED_IN</text></g><g class="relationship" transform="translate(-34.86262158299097 300.4004322744071) rotate(504.3368629171145)"><path class="outline" fill="#A5ABB6" stroke="none" d="M 25 0.5 L 122.42051951739231 0.5 L 122.42051951739231 -0.5 L 25 -0.5 Z M 167.9830195173923 0.5 L 265.4035390347846 0.5 L 265.4035390347846 3.5 L 272.4035390347846 0 L 265.4035390347846 -3.5 L 265.4035390347846 -0.5 L 167.9830195173923 -0.5 Z"/><text text-anchor="middle" pointer-events="none" font-size="8px" fill="#000000" x="145.2017695173923" y="3" transform="rotate(180 145.2017695173923 0)" font-family="sans-serif">ACTED_IN</text></g><g class="relationship" transform="translate(-88.68927063816304 326.1212353800887) rotate(501.82152131610053)"><path class="outline" fill="#A5ABB6" stroke="none" d="M 25 0.5 L 93.17179103777426 0.5 L 93.17179103777426 -0.5 L 25 -0.5 Z M 138.73429103777426 0.5 L 206.9060820755485 0.5 L 206.9060820755485 3.5 L 213.9060820755485 0 L 206.9060820755485 -3.5 L 206.9060820755485 -0.5 L 138.73429103777426 -0.5 Z"/><text text-anchor="middle" pointer-events="none" font-size="8px" fill="#000000" x="115.95304103777426" y="3" transform="rotate(180 115.95304103777426 0)" font-family="sans-serif">ACTED_IN</text></g><g class="relationship" transform="translate(91.60150614826424 358.6012420451373) rotate(522.622982564252)"><path class="outline" fill="#A5ABB6" stroke="none" d="M 25 0.5 L 166.5664022787433 0.5 L 166.5664022787433 -0.5 L 25 -0.5 Z M 212.1289022787433 0.5 L 353.6953045574866 0.5 L 353.6953045574866 3.5 L 360.6953045574866 0 L 353.6953045574866 -3.5 L 353.6953045574866 -0.5 L 212.1289022787433 -0.5 Z"/><text text-anchor="middle" pointer-events="none" font-size="8px" fill="#000000" x="189.3476522787433" y="3" transform="rotate(180 189.3476522787433 0)" font-family="sans-serif">ACTED_IN</text></g><g class="relationship" transform="translate(135.94961141591858 318.6729811495866) rotate(519.388667019813)"><path class="outline" fill="#A5ABB6" stroke="none" d="M 25 0.5 L 193.37776152072172 0.5 L 193.37776152072172 -0.5 L 25 -0.5 Z M 240.26838652072172 0.5 L 408.64614804144344 0.5 L 408.64614804144344 3.5 L 415.64614804144344 0 L 408.64614804144344 -3.5 L 408.64614804144344 -0.5 L 240.26838652072172 -0.5 Z"/><text text-anchor="middle" pointer-events="none" font-size="8px" fill="#000000" x="216.82307402072172" y="3" transform="rotate(180 216.82307402072172 0)" font-family="sans-serif">DIRECTED</text></g><g class="relationship" transform="translate(148.16008386234722 376.89219897221096) rotate(527.1459027162052)"><path class="outline" fill="#A5ABB6" stroke="none" d="M 25 0.5 L 190.83780272929656 0.5 L 190.83780272929656 -0.5 L 25 -0.5 Z M 237.72842772929656 0.5 L 403.5662304585931 0.5 L 403.5662304585931 3.5 L 410.5662304585931 0 L 403.5662304585931 -3.5 L 403.5662304585931 -0.5 L 237.72842772929656 -0.5 Z"/><text text-anchor="middle" pointer-events="none" font-size="8px" fill="#000000" x="214.28311522929656" y="3" transform="rotate(180 214.28311522929656 0)" font-family="sans-serif">DIRECTED</text></g><g class="relationship" transform="translate(69.93208073269545 298.66399849228765) rotate(513.1818881702479)"><path class="outline" fill="#A5ABB6" stroke="none" d="M 25 0.5 L 164.6961280026609 0.5 L 164.6961280026609 -0.5 L 25 -0.5 Z M 216.4773780026609 0.5 L 356.1735060053218 0.5 L 356.1735060053218 3.5 L 363.1735060053218 0 L 356.1735060053218 -3.5 L 356.1735060053218 -0.5 L 216.4773780026609 -0.5 Z"/><text text-anchor="middle" pointer-events="none" font-size="8px" fill="#000000" x="190.5867530026609" y="3" transform="rotate(180 190.5867530026609 0)" font-family="sans-serif">PRODUCED</text></g><g class="relationship" transform="translate(-98.31692916949505 266.9284184943856) rotate(267.0555066110185)"><path class="outline" fill="#A5ABB6" stroke="none" d="M 25 0.5 L 56.949577379001255 0.5 L 56.949577379001255 -0.5 L 25 -0.5 Z M 102.51207737900125 0.5 L 134.4616547580025 0.5 L 134.4616547580025 3.5 L 141.4616547580025 0 L 134.4616547580025 -3.5 L 134.4616547580025 -0.5 L 102.51207737900125 -0.5 Z"/><text text-anchor="middle" pointer-events="none" font-size="8px" fill="#000000" x="79.73082737900125" y="3" transform="rotate(180 79.73082737900125 0)" font-family="sans-serif">ACTED_IN</text></g></g><g class="layer nodes"><g class="node" transform="translate(334.55374204525066,511.5434857537933)"><circle class="outline" cx="0" cy="0" r="25" fill="#57C7E3" stroke="#23b3d7" stroke-width="2px"/><text text-anchor="middle" pointer-events="none" font-family="sans-serif" dy="1.5625" font-size="25" fill="#2A2C34"/><text text-anchor="middle" pointer-events="none" font-family="sans-serif" dy="1.5625" font-size="25" fill="#2A2C34"/><text text-anchor="middle" pointer-events="none" x="0" y="0" font-size="10px" fill="#2A2C34" font-family="sans-serif"> Cloud</text><text text-anchor="middle" pointer-events="none" x="0" y="10" font-size="10px" fill="#2A2C34" font-family="sans-serif"> Atlas</text></g><g class="node" transform="translate(451.95937430405655,260.42092984385465)"><circle class="outline" cx="0" cy="0" r="25" fill="#57C7E3" stroke="#23b3d7" stroke-width="2px"/><text text-anchor="middle" pointer-events="none" font-family="sans-serif" dy="1.5625" font-size="25" fill="#2A2C34"/><text text-anchor="middle" pointer-events="none" font-family="sans-serif" dy="1.5625" font-size="25" fill="#2A2C34"/><text text-anchor="middle" pointer-events="none" x="0" y="0" font-size="10px" fill="#2A2C34" font-family="sans-serif"> V for</text><text text-anchor="middle" pointer-events="none" x="0" y="10" font-size="10px" fill="#2A2C34" font-family="sans-serif"> Vendetta</text></g><g class="node" transform="translate(139.3448852908902,44.811774281129885)"><circle class="outline" cx="0" cy="0" r="25" fill="#57C7E3" stroke="#23b3d7" stroke-width="2px"/><text text-anchor="middle" pointer-events="none" font-family="sans-serif" dy="1.5625" font-size="25" fill="#2A2C34"/><text text-anchor="middle" pointer-events="none" font-family="sans-serif" dy="1.5625" font-size="25" fill="#2A2C34"/><text text-anchor="middle" pointer-events="none" font-family="sans-serif" dy="1.5625" font-size="25" fill="#2A2C34"/><text text-anchor="middle" pointer-events="none" x="0" y="-5" font-size="10px" fill="#2A2C34" font-family="sans-serif"> The</text><text text-anchor="middle" pointer-events="none" x="0" y="5" font-size="10px" fill="#2A2C34" font-family="sans-serif"> Matrix</text><text text-anchor="middle" pointer-events="none" x="0" y="15" font-size="10px" fill="#2A2C34" font-family="sans-serif"> Revol…</text></g><g class="node" transform="translate(-44.09193944167997,490.95390166034554)"><circle class="outline" cx="0" cy="0" r="25" fill="#57C7E3" stroke="#23b3d7" stroke-width="2px"/><text text-anchor="middle" pointer-events="none" font-family="sans-serif" dy="1.5625" font-size="25" fill="#2A2C34"/><text text-anchor="middle" pointer-events="none" font-family="sans-serif" dy="1.5625" font-size="25" fill="#2A2C34"/><text text-anchor="middle" pointer-events="none" font-family="sans-serif" dy="1.5625" font-size="25" fill="#2A2C34"/><text text-anchor="middle" pointer-events="none" x="0" y="-5" font-size="10px" fill="#2A2C34" font-family="sans-serif"> The</text><text text-anchor="middle" pointer-events="none" x="0" y="5" font-size="10px" fill="#2A2C34" font-family="sans-serif"> Matrix</text><text text-anchor="middle" pointer-events="none" x="0" y="15" font-size="10px" fill="#2A2C34" font-family="sans-serif"> Reloa…</text></g><g class="node" transform="translate(274.06735625477296,-306.8790255025502)"><circle class="outline" cx="0" cy="0" r="25" fill="#57C7E3" stroke="#23b3d7" stroke-width="2px"/><text text-anchor="middle" pointer-events="none" font-family="sans-serif" dy="1.5625" font-size="25" fill="#2A2C34"/><text text-anchor="middle" pointer-events="none" x="0" y="5" font-size="10px" fill="#2A2C34" font-family="sans-serif"> Somethi…</text></g><g class="node" transform="translate(83.08234050162412,-354.30978184583927)"><circle class="outline" cx="0" cy="0" r="25" fill="#57C7E3" stroke="#23b3d7" stroke-width="2px"/><text text-anchor="middle" pointer-events="none" font-family="sans-serif" dy="1.5625" font-size="25" fill="#2A2C34"/><text text-anchor="middle" pointer-events="none" font-family="sans-serif" dy="1.5625" font-size="25" fill="#2A2C34"/><text text-anchor="middle" pointer-events="none" x="0" y="0" font-size="10px" fill="#2A2C34" font-family="sans-serif"> The</text><text text-anchor="middle" pointer-events="none" x="0" y="10" font-size="10px" fill="#2A2C34" font-family="sans-serif"> Replac…</text></g><g class="node" transform="translate(-106.86781241573269,100.68653177361466)"><circle class="outline" cx="0" cy="0" r="25" fill="#57C7E3" stroke="#23b3d7" stroke-width="2px"/><text text-anchor="middle" pointer-events="none" font-family="sans-serif" dy="1.5625" font-size="25" fill="#2A2C34"/><text text-anchor="middle" pointer-events="none" font-family="sans-serif" dy="1.5625" font-size="25" fill="#2A2C34"/><text text-anchor="middle" pointer-events="none" x="0" y="0" font-size="10px" fill="#2A2C34" font-family="sans-serif"> Johnny</text><text text-anchor="middle" pointer-events="none" x="0" y="10" font-size="10px" fill="#2A2C34" font-family="sans-serif"> Mnemo…</text></g><g class="node" transform="translate(-256.6610486293207,267.9459047056507)"><circle class="outline" cx="0" cy="0" r="25" fill="#57C7E3" stroke="#23b3d7" stroke-width="2px"/><text text-anchor="middle" pointer-events="none" font-family="sans-serif" dy="1.5625" font-size="25" fill="#2A2C34"/><text text-anchor="middle" pointer-events="none" font-family="sans-serif" dy="1.5625" font-size="25" fill="#2A2C34"/><text text-anchor="middle" pointer-events="none" font-family="sans-serif" dy="1.5625" font-size="25" fill="#2A2C34"/><text text-anchor="middle" pointer-events="none" x="0" y="-5" font-size="10px" fill="#2A2C34" font-family="sans-serif"> The</text><text text-anchor="middle" pointer-events="none" x="0" y="5" font-size="10px" fill="#2A2C34" font-family="sans-serif"> Devil's</text><text text-anchor="middle" pointer-events="none" x="0" y="15" font-size="10px" fill="#2A2C34" font-family="sans-serif"> Advoc…</text></g><g class="node" transform="translate(-276.49074316405984,473.79223107590417)"><circle class="outline" cx="0" cy="0" r="25" fill="#57C7E3" stroke="#23b3d7" stroke-width="2px"/><text text-anchor="middle" pointer-events="none" font-family="sans-serif" dy="1.5625" font-size="25" fill="#2A2C34"/><text text-anchor="middle" pointer-events="none" font-family="sans-serif" dy="1.5625" font-size="25" fill="#2A2C34"/><text text-anchor="middle" pointer-events="none" x="0" y="0" font-size="10px" fill="#2A2C34" font-family="sans-serif"> The</text><text text-anchor="middle" pointer-events="none" x="0" y="10" font-size="10px" fill="#2A2C34" font-family="sans-serif"> Matrix</text></g><g class="node" transform="translate(-125.56503618793914,-44.497371266981)"><circle class="outline" cx="0" cy="0" r="25" fill="#F79767" stroke="#f36924" stroke-width="2px"/><text text-anchor="middle" pointer-events="none" font-family="sans-serif" dy="1.5625" font-size="25" fill="#FFFFFF"/><text text-anchor="middle" pointer-events="none" font-family="sans-serif" dy="1.5625" font-size="25" fill="#FFFFFF"/><text text-anchor="middle" pointer-events="none" x="0" y="0" font-size="10px" fill="#FFFFFF" font-family="sans-serif"> Takeshi</text><text text-anchor="middle" pointer-events="none" x="0" y="10" font-size="10px" fill="#FFFFFF" font-family="sans-serif"> Kitano</text></g><g class="node" transform="translate(-186.72103298087552,-7.482913620732393)"><circle class="outline" cx="0" cy="0" r="25" fill="#F79767" stroke="#f36924" stroke-width="2px"/><text text-anchor="middle" pointer-events="none" font-family="sans-serif" dy="1.5625" font-size="25" fill="#FFFFFF"/><text text-anchor="middle" pointer-events="none" font-family="sans-serif" dy="1.5625" font-size="25" fill="#FFFFFF"/><text text-anchor="middle" pointer-events="none" x="0" y="0" font-size="10px" fill="#FFFFFF" font-family="sans-serif"> Dina</text><text text-anchor="middle" pointer-events="none" x="0" y="10" font-size="10px" fill="#FFFFFF" font-family="sans-serif"> Meyer</text></g><g class="node" transform="translate(-13.676143278657634,4.198697066000485)"><circle class="outline" cx="0" cy="0" r="25" fill="#F79767" stroke="#f36924" stroke-width="2px"/><text text-anchor="middle" pointer-events="none" font-family="sans-serif" dy="1.5625" font-size="25" fill="#FFFFFF"/><text text-anchor="middle" pointer-events="none" x="0" y="5" font-size="10px" fill="#FFFFFF" font-family="sans-serif"> Ice-T</text></g><g class="node" transform="translate(-63.591221146477935,-38.2792151047274)"><circle class="outline" cx="0" cy="0" r="25" fill="#F79767" stroke="#f36924" stroke-width="2px"/><text text-anchor="middle" pointer-events="none" font-family="sans-serif" dy="1.5625" font-size="25" fill="#FFFFFF"/><text text-anchor="middle" pointer-events="none" font-family="sans-serif" dy="1.5625" font-size="25" fill="#FFFFFF"/><text text-anchor="middle" pointer-events="none" x="0" y="0" font-size="10px" fill="#FFFFFF" font-family="sans-serif"> Robert</text><text text-anchor="middle" pointer-events="none" x="0" y="10" font-size="10px" fill="#FFFFFF" font-family="sans-serif"> Longo</text></g><g class="node" transform="translate(562.8936815778058,212.8135775189976)"><circle class="outline" cx="0" cy="0" r="25" fill="#F79767" stroke="#f36924" stroke-width="2px"/><text text-anchor="middle" pointer-events="none" font-family="sans-serif" dy="1.5625" font-size="25" fill="#FFFFFF"/><text text-anchor="middle" pointer-events="none" font-family="sans-serif" dy="1.5625" font-size="25" fill="#FFFFFF"/><text text-anchor="middle" pointer-events="none" x="0" y="0" font-size="10px" fill="#FFFFFF" font-family="sans-serif"> James</text><text text-anchor="middle" pointer-events="none" x="0" y="10" font-size="10px" fill="#FFFFFF" font-family="sans-serif"> Marshall</text></g><g class="node" transform="translate(526.2999102269791,149.023996704465)"><circle class="outline" cx="0" cy="0" r="25" fill="#F79767" stroke="#f36924" stroke-width="2px"/><text text-anchor="middle" pointer-events="none" font-family="sans-serif" dy="1.5625" font-size="25" fill="#FFFFFF"/><text text-anchor="middle" pointer-events="none" font-family="sans-serif" dy="1.5625" font-size="25" fill="#FFFFFF"/><text text-anchor="middle" pointer-events="none" x="0" y="0" font-size="10px" fill="#FFFFFF" font-family="sans-serif"> Natalie</text><text text-anchor="middle" pointer-events="none" x="0" y="10" font-size="10px" fill="#FFFFFF" font-family="sans-serif"> Portman</text></g><g class="node" transform="translate(413.24149224648886,120.86939728080975)"><circle class="outline" cx="0" cy="0" r="25" fill="#F79767" stroke="#f36924" stroke-width="2px"/><text text-anchor="middle" pointer-events="none" font-family="sans-serif" dy="1.5625" font-size="25" fill="#FFFFFF"/><text text-anchor="middle" pointer-events="none" font-family="sans-serif" dy="1.5625" font-size="25" fill="#FFFFFF"/><text text-anchor="middle" pointer-events="none" x="0" y="0" font-size="10px" fill="#FFFFFF" font-family="sans-serif"> Stephen</text><text text-anchor="middle" pointer-events="none" x="0" y="10" font-size="10px" fill="#FFFFFF" font-family="sans-serif"> Rea</text></g><g class="node" transform="translate(366.72757879066415,161.8279374426791)"><circle class="outline" cx="0" cy="0" r="25" fill="#F79767" stroke="#f36924" stroke-width="2px"/><text text-anchor="middle" pointer-events="none" font-family="sans-serif" dy="1.5625" font-size="25" fill="#FFFFFF"/><text text-anchor="middle" pointer-events="none" x="0" y="5" font-size="10px" fill="#FFFFFF" font-family="sans-serif"> John Hurt</text></g><g class="node" transform="translate(473.14960332704055,117.6515824203695)"><circle class="outline" cx="0" cy="0" r="25" fill="#F79767" stroke="#f36924" stroke-width="2px"/><text text-anchor="middle" pointer-events="none" font-family="sans-serif" dy="1.5625" font-size="25" fill="#FFFFFF"/><text text-anchor="middle" pointer-events="none" x="0" y="5" font-size="10px" fill="#FFFFFF" font-family="sans-serif"> Ben Miles</text></g><g class="node" transform="translate(-258.70545469104167,140.23956134432484)"><circle class="outline" cx="0" cy="0" r="25" fill="#F79767" stroke="#f36924" stroke-width="2px"/><text text-anchor="middle" pointer-events="none" font-family="sans-serif" dy="1.5625" font-size="25" fill="#FFFFFF"/><text text-anchor="middle" pointer-events="none" font-family="sans-serif" dy="1.5625" font-size="25" fill="#FFFFFF"/><text text-anchor="middle" pointer-events="none" x="0" y="0" font-size="10px" fill="#FFFFFF" font-family="sans-serif"> Charlize</text><text text-anchor="middle" pointer-events="none" x="0" y="10" font-size="10px" fill="#FFFFFF" font-family="sans-serif"> Theron</text></g><g class="node" transform="translate(-369.1300638087002,227.97530706992)"><circle class="outline" cx="0" cy="0" r="25" fill="#F79767" stroke="#f36924" stroke-width="2px"/><text text-anchor="middle" pointer-events="none" font-family="sans-serif" dy="1.5625" font-size="25" fill="#FFFFFF"/><text text-anchor="middle" pointer-events="none" x="0" y="5" font-size="10px" fill="#FFFFFF" font-family="sans-serif"> Al Pacino</text></g><g class="node" transform="translate(-330.36627465070643,155.5458801898232)"><circle class="outline" cx="0" cy="0" r="25" fill="#F79767" stroke="#f36924" stroke-width="2px"/><text text-anchor="middle" pointer-events="none" font-family="sans-serif" dy="1.5625" font-size="25" fill="#FFFFFF"/><text text-anchor="middle" pointer-events="none" font-family="sans-serif" dy="1.5625" font-size="25" fill="#FFFFFF"/><text text-anchor="middle" pointer-events="none" x="0" y="0" font-size="10px" fill="#FFFFFF" font-family="sans-serif"> Taylor</text><text text-anchor="middle" pointer-events="none" x="0" y="10" font-size="10px" fill="#FFFFFF" font-family="sans-serif"> Hackford</text></g><g class="node" transform="translate(262.5677455901647,426.48206368288754)"><circle class="outline" cx="0" cy="0" r="25" fill="#F79767" stroke="#f36924" stroke-width="2px"/><text text-anchor="middle" pointer-events="none" font-family="sans-serif" dy="1.5625" font-size="25" fill="#FFFFFF"/><text text-anchor="middle" pointer-events="none" font-family="sans-serif" dy="1.5625" font-size="25" fill="#FFFFFF"/><text text-anchor="middle" pointer-events="none" x="0" y="0" font-size="10px" fill="#FFFFFF" font-family="sans-serif"> Tom</text><text text-anchor="middle" pointer-events="none" x="0" y="10" font-size="10px" fill="#FFFFFF" font-family="sans-serif"> Hanks</text></g><g class="node" transform="translate(419.5373311675905,580.8168122747447)"><circle class="outline" cx="0" cy="0" r="25" fill="#F79767" stroke="#f36924" stroke-width="2px"/><text text-anchor="middle" pointer-events="none" font-family="sans-serif" dy="1.5625" font-size="25" fill="#FFFFFF"/><text text-anchor="middle" pointer-events="none" font-family="sans-serif" dy="1.5625" font-size="25" fill="#FFFFFF"/><text text-anchor="middle" pointer-events="none" x="0" y="0" font-size="10px" fill="#FFFFFF" font-family="sans-serif"> Halle</text><text text-anchor="middle" pointer-events="none" x="0" y="10" font-size="10px" fill="#FFFFFF" font-family="sans-serif"> Berry</text></g><g class="node" transform="translate(452.42443030492905,480.8092025661388)"><circle class="outline" cx="0" cy="0" r="25" fill="#F79767" stroke="#f36924" stroke-width="2px"/><text text-anchor="middle" pointer-events="none" font-family="sans-serif" dy="1.5625" font-size="25" fill="#FFFFFF"/><text text-anchor="middle" pointer-events="none" font-family="sans-serif" dy="1.5625" font-size="25" fill="#FFFFFF"/><text text-anchor="middle" pointer-events="none" x="0" y="0" font-size="10px" fill="#FFFFFF" font-family="sans-serif"> Jim</text><text text-anchor="middle" pointer-events="none" x="0" y="10" font-size="10px" fill="#FFFFFF" font-family="sans-serif"> Broadb…</text></g><g class="node" transform="translate(412.3407539752298,416.4958607136453)"><circle class="outline" cx="0" cy="0" r="25" fill="#F79767" stroke="#f36924" stroke-width="2px"/><text text-anchor="middle" pointer-events="none" font-family="sans-serif" dy="1.5625" font-size="25" fill="#FFFFFF"/><text text-anchor="middle" pointer-events="none" font-family="sans-serif" dy="1.5625" font-size="25" fill="#FFFFFF"/><text text-anchor="middle" pointer-events="none" x="0" y="0" font-size="10px" fill="#FFFFFF" font-family="sans-serif"> Tom</text><text text-anchor="middle" pointer-events="none" x="0" y="10" font-size="10px" fill="#FFFFFF" font-family="sans-serif"> Tykwer</text></g><g class="node" transform="translate(281.9655999001942,613.99513391022)"><circle class="outline" cx="0" cy="0" r="25" fill="#F79767" stroke="#f36924" stroke-width="2px"/><text text-anchor="middle" pointer-events="none" font-family="sans-serif" dy="1.5625" font-size="25" fill="#FFFFFF"/><text text-anchor="middle" pointer-events="none" font-family="sans-serif" dy="1.5625" font-size="25" fill="#FFFFFF"/><text text-anchor="middle" pointer-events="none" x="0" y="0" font-size="10px" fill="#FFFFFF" font-family="sans-serif"> David</text><text text-anchor="middle" pointer-events="none" x="0" y="10" font-size="10px" fill="#FFFFFF" font-family="sans-serif"> Mitchell</text></g><g class="node" transform="translate(338.9362952759627,387.36004591621054)"><circle class="outline" cx="0" cy="0" r="25" fill="#F79767" stroke="#f36924" stroke-width="2px"/><text text-anchor="middle" pointer-events="none" font-family="sans-serif" dy="1.5625" font-size="25" fill="#FFFFFF"/><text text-anchor="middle" pointer-events="none" font-family="sans-serif" dy="1.5625" font-size="25" fill="#FFFFFF"/><text text-anchor="middle" pointer-events="none" x="0" y="0" font-size="10px" fill="#FFFFFF" font-family="sans-serif"> Stefan</text><text text-anchor="middle" pointer-events="none" x="0" y="10" font-size="10px" fill="#FFFFFF" font-family="sans-serif"> Arndt</text></g><g class="node" transform="translate(219.18450744621748,542.6505777985911)"><circle class="outline" cx="0" cy="0" r="25" fill="#F79767" stroke="#f36924" stroke-width="2px"/><text text-anchor="middle" pointer-events="none" font-family="sans-serif" dy="1.5625" font-size="25" fill="#FFFFFF"/><text text-anchor="middle" pointer-events="none" font-family="sans-serif" dy="1.5625" font-size="25" fill="#FFFFFF"/><text text-anchor="middle" pointer-events="none" x="0" y="0" font-size="10px" fill="#FFFFFF" font-family="sans-serif"> Jessica</text><text text-anchor="middle" pointer-events="none" x="0" y="10" font-size="10px" fill="#FFFFFF" font-family="sans-serif"> Thomp…</text></g><g class="node" transform="translate(-361.2992532946214,410.0350932326107)"><circle class="outline" cx="0" cy="0" r="25" fill="#F79767" stroke="#f36924" stroke-width="2px"/><text text-anchor="middle" pointer-events="none" font-family="sans-serif" dy="1.5625" font-size="25" fill="#FFFFFF"/><text text-anchor="middle" pointer-events="none" font-family="sans-serif" dy="1.5625" font-size="25" fill="#FFFFFF"/><text text-anchor="middle" pointer-events="none" x="0" y="0" font-size="10px" fill="#FFFFFF" font-family="sans-serif"> Emil</text><text text-anchor="middle" pointer-events="none" x="0" y="10" font-size="10px" fill="#FFFFFF" font-family="sans-serif"> Eifrem</text></g><g class="node" transform="translate(-98.31692916949505,266.9284184943856)"><circle class="outline" cx="0" cy="0" r="25" fill="#F79767" stroke="#f36924" stroke-width="2px"/><text text-anchor="middle" pointer-events="none" font-family="sans-serif" dy="1.5625" font-size="25" fill="#FFFFFF"/><text text-anchor="middle" pointer-events="none" font-family="sans-serif" dy="1.5625" font-size="25" fill="#FFFFFF"/><text text-anchor="middle" pointer-events="none" x="0" y="0" font-size="10px" fill="#FFFFFF" font-family="sans-serif"> Keanu</text><text text-anchor="middle" pointer-events="none" x="0" y="10" font-size="10px" fill="#FFFFFF" font-family="sans-serif"> Reeves</text></g><g class="node" transform="translate(-34.86262158299097,300.4004322744071)"><circle class="outline" cx="0" cy="0" r="25" fill="#F79767" stroke="#f36924" stroke-width="2px"/><text text-anchor="middle" pointer-events="none" font-family="sans-serif" dy="1.5625" font-size="25" fill="#FFFFFF"/><text text-anchor="middle" pointer-events="none" x="0" y="5" font-size="10px" fill="#FFFFFF" font-family="sans-serif"> Carrie-A…</text></g><g class="node" transform="translate(-88.68927063816304,326.1212353800887)"><circle class="outline" cx="0" cy="0" r="25" fill="#F79767" stroke="#f36924" stroke-width="2px"/><text text-anchor="middle" pointer-events="none" font-family="sans-serif" dy="1.5625" font-size="25" fill="#FFFFFF"/><text text-anchor="middle" pointer-events="none" font-family="sans-serif" dy="1.5625" font-size="25" fill="#FFFFFF"/><text text-anchor="middle" pointer-events="none" x="0" y="0" font-size="10px" fill="#FFFFFF" font-family="sans-serif"> Laurence</text><text text-anchor="middle" pointer-events="none" x="0" y="10" font-size="10px" fill="#FFFFFF" font-family="sans-serif"> Fishbur…</text></g><g class="node" transform="translate(91.60150614826424,358.6012420451373)"><circle class="outline" cx="0" cy="0" r="25" fill="#F79767" stroke="#f36924" stroke-width="2px"/><text text-anchor="middle" pointer-events="none" font-family="sans-serif" dy="1.5625" font-size="25" fill="#FFFFFF"/><text text-anchor="middle" pointer-events="none" font-family="sans-serif" dy="1.5625" font-size="25" fill="#FFFFFF"/><text text-anchor="middle" pointer-events="none" x="0" y="0" font-size="10px" fill="#FFFFFF" font-family="sans-serif"> Hugo</text><text text-anchor="middle" pointer-events="none" x="0" y="10" font-size="10px" fill="#FFFFFF" font-family="sans-serif"> Weaving</text></g><g class="node" transform="translate(135.94961141591858,318.6729811495866)"><circle class="outline" cx="0" cy="0" r="25" fill="#F79767" stroke="#f36924" stroke-width="2px"/><text text-anchor="middle" pointer-events="none" font-family="sans-serif" dy="1.5625" font-size="25" fill="#FFFFFF"/><text text-anchor="middle" pointer-events="none" font-family="sans-serif" dy="1.5625" font-size="25" fill="#FFFFFF"/><text text-anchor="middle" pointer-events="none" x="0" y="0" font-size="10px" fill="#FFFFFF" font-family="sans-serif"> Lilly</text><text text-anchor="middle" pointer-events="none" x="0" y="10" font-size="10px" fill="#FFFFFF" font-family="sans-serif"> Wacho…</text></g><g class="node" transform="translate(148.16008386234722,376.89219897221096)"><circle class="outline" cx="0" cy="0" r="25" fill="#F79767" stroke="#f36924" stroke-width="2px"/><text text-anchor="middle" pointer-events="none" font-family="sans-serif" dy="1.5625" font-size="25" fill="#FFFFFF"/><text text-anchor="middle" pointer-events="none" font-family="sans-serif" dy="1.5625" font-size="25" fill="#FFFFFF"/><text text-anchor="middle" pointer-events="none" x="0" y="0" font-size="10px" fill="#FFFFFF" font-family="sans-serif"> Lana</text><text text-anchor="middle" pointer-events="none" x="0" y="10" font-size="10px" fill="#FFFFFF" font-family="sans-serif"> Wacho…</text></g><g class="node" transform="translate(69.93208073269545,298.66399849228765)"><circle class="outline" cx="0" cy="0" r="25" fill="#F79767" stroke="#f36924" stroke-width="2px"/><text text-anchor="middle" pointer-events="none" font-family="sans-serif" dy="1.5625" font-size="25" fill="#FFFFFF"/><text text-anchor="middle" pointer-events="none" x="0" y="5" font-size="10px" fill="#FFFFFF" font-family="sans-serif"> Joel Silver</text></g></g></svg>