<svg xmlns="http://www.w3.org/2000/svg" width="515.9959716796875" height="450.409423828125" viewBox="-127.34856414794922 -82.32440185546875 515.9959716796875 450.409423828125"><title>Neo4j Graph Visualization</title><desc>Created using Neo4j (http://www.neo4j.com/)</desc><g class="layer relationships"><g class="relationship" transform="translate(176.6578203322787 185.13236618724727) rotate(218.71117081380874)"><path class="outline" fill="#A5ABB6" stroke="none" d="M 25 0.5 L 77.01709683765117 0.5 L 77.01709683765117 -0.5 L 25 -0.5 Z M 122.57959683765117 0.5 L 174.59669367530233 0.5 L 174.59669367530233 3.5 L 181.59669367530233 0 L 174.59669367530233 -3.5 L 174.59669367530233 -0.5 L 122.57959683765117 -0.5 Z"/><text text-anchor="middle" pointer-events="none" font-size="8px" fill="#000000" x="99.79834683765117" y="3" transform="rotate(180 99.79834683765117 0)" font-family="sans-serif">ACTED_IN</text></g><g class="relationship" transform="translate(74.85213311707638 203.57521558224013) rotate(248.0834274082448)"><path class="outline" fill="#A5ABB6" stroke="none" d="M 25 0.5 L 53.29341814449312 0.5 L 53.29341814449312 -0.5 L 25 -0.5 Z M 98.85591814449312 0.5 L 127.14933628898623 0.5 L 127.14933628898623 3.5 L 134.14933628898623 0 L 127.14933628898623 -3.5 L 127.14933628898623 -0.5 L 98.85591814449312 -0.5 Z"/><text text-anchor="middle" pointer-events="none" font-size="8px" fill="#000000" x="76.07466814449312" y="3" transform="rotate(180 76.07466814449312 0)" font-family="sans-serif">ACTED_IN</text></g><g class="relationship" transform="translate(120.51687009729703 164.92771832997246) rotate(226.05219548320878)"><path class="outline" fill="#A5ABB6" stroke="none" d="M 25 0.5 L 49.41600049703766 0.5 L 49.41600049703766 -0.5 L 25 -0.5 Z M 94.97850049703766 0.5 L 119.39450099407532 0.5 L 119.39450099407532 3.5 L 126.39450099407532 0 L 119.39450099407532 -3.5 L 119.39450099407532 -0.5 L 94.97850049703766 -0.5 Z"/><text text-anchor="middle" pointer-events="none" font-size="8px" fill="#000000" x="72.19725049703766" y="3" transform="rotate(180 72.19725049703766 0)" font-family="sans-serif">ACTED_IN</text></g><g class="relationship" transform="translate(166.0115568420388 126.18630539095632) rotate(205.0155670733444)"><path class="outline" fill="#A5ABB6" stroke="none" d="M 25 0.5 L 56.79316262176245 0.5 L 56.79316262176245 -0.5 L 25 -0.5 Z M 102.35566262176245 0.5 L 134.1488252435249 0.5 L 134.1488252435249 3.5 L 141.1488252435249 0 L 134.1488252435249 -3.5 L 134.1488252435249 -0.5 L 102.35566262176245 -0.5 Z"/><text text-anchor="middle" pointer-events="none" font-size="8px" fill="#000000" x="79.57441262176245" y="3" transform="rotate(180 79.57441262176245 0)" font-family="sans-serif">ACTED_IN</text></g><g class="relationship" transform="translate(64.27244690006505 144.76988305390637) rotate(241.2086825556031)"><path class="outline" fill="#A5ABB6" stroke="none" d="M 25 0.5 L 25.2982723739238 0.5 L 25.2982723739238 -0.5 L 25 -0.5 Z M 69.0756161239238 0.5 L 69.3738884978476 0.5 L 69.3738884978476 3.5 L 76.3738884978476 0 L 69.3738884978476 -3.5 L 69.3738884978476 -0.5 L 69.0756161239238 -0.5 Z"/><text text-anchor="middle" pointer-events="none" font-size="8px" fill="#000000" x="47.1869442489238" y="3" transform="rotate(180 47.1869442489238 0)" font-family="sans-serif">DIRECT…</text></g><g class="relationship" transform="translate(109.89069566500334 106.02468195468849) rotate(207.94373368130186)"><path class="outline" fill="#A5ABB6" stroke="none" d="M 25 0.5 L 26.507909442159544 0.5 L 26.507909442159544 -0.5 L 25 -0.5 Z M 73.39853444215954 0.5 L 74.90644388431909 0.5 L 74.90644388431909 3.5 L 81.90644388431909 0 L 74.90644388431909 -3.5 L 74.90644388431909 -0.5 L 73.39853444215954 -0.5 Z"/><text text-anchor="middle" pointer-events="none" font-size="8px" fill="#000000" x="49.953221942159544" y="3" transform="rotate(180 49.953221942159544 0)" font-family="sans-serif">DIRECTED</text></g><g class="relationship" transform="translate(131.10396746030978 223.7845352920258) rotate(235.43268206444537)"><path class="outline" fill="#A5ABB6" stroke="none" d="M 25 0.5 L 72.53092521880707 0.5 L 72.53092521880707 -0.5 L 25 -0.5 Z M 124.31217521880707 0.5 L 171.84310043761414 0.5 L 171.84310043761414 3.5 L 178.84310043761414 0 L 171.84310043761414 -3.5 L 171.84310043761414 -0.5 L 124.31217521880707 -0.5 Z"/><text text-anchor="middle" pointer-events="none" font-size="8px" fill="#000000" x="98.42155021880707" y="3" transform="rotate(180 98.42155021880707 0)" font-family="sans-serif">PRODUCED</text></g><g class="relationship" transform="translate(-18.33906635959577 -53.32439932622586) rotate(432.81507330196825)"><path class="outline" fill="#A5ABB6" stroke="none" d="M 25 0.5 L 30.897567551078552 0.5 L 30.897567551078552 -0.5 L 25 -0.5 Z M 76.46006755107855 0.5 L 82.3576351021571 0.5 L 82.3576351021571 3.5 L 89.3576351021571 0 L 82.3576351021571 -3.5 L 82.3576351021571 -0.5 L 76.46006755107855 -0.5 Z"/><text text-anchor="middle" pointer-events="none" font-size="8px" fill="#000000" x="53.67881755107855" y="3" font-family="sans-serif">ACTED_IN</text></g><g class="relationship" transform="translate(176.6578203322787 185.13236618724727) rotate(335.8341697199003)"><path class="outline" fill="#A5ABB6" stroke="none" d="M 25 0.5 L 74.00193104433252 0.5 L 74.00193104433252 -0.5 L 25 -0.5 Z M 119.56443104433252 0.5 L 168.56636208866504 0.5 L 168.56636208866504 3.5 L 175.56636208866504 0 L 168.56636208866504 -3.5 L 168.56636208866504 -0.5 L 119.56443104433252 -0.5 Z"/><text text-anchor="middle" pointer-events="none" font-size="8px" fill="#000000" x="96.78318104433252" y="3" font-family="sans-serif">ACTED_IN</text></g><g class="relationship" transform="translate(74.85213311707638 203.57521558224013) rotate(340.55379038539854)"><path class="outline" fill="#A5ABB6" stroke="none" d="M 25 0.5 L 124.73097392727198 0.5 L 124.73097392727198 -0.5 L 25 -0.5 Z M 170.29347392727198 0.5 L 270.02444785454395 0.5 L 270.02444785454395 3.5 L 277.02444785454395 0 L 270.02444785454395 -3.5 L 270.02444785454395 -0.5 L 170.29347392727198 -0.5 Z"/><text text-anchor="middle" pointer-events="none" font-size="8px" fill="#000000" x="147.51222392727198" y="3" font-family="sans-serif">ACTED_IN</text></g><g class="relationship" transform="translate(120.51687009729703 164.92771832997246) rotate(345.4866069750433)"><path class="outline" fill="#A5ABB6" stroke="none" d="M 25 0.5 L 97.22523631013813 0.5 L 97.22523631013813 -0.5 L 25 -0.5 Z M 142.78773631013814 0.5 L 215.01297262027626 0.5 L 215.01297262027626 3.5 L 222.01297262027626 0 L 215.01297262027626 -3.5 L 215.01297262027626 -0.5 L 142.78773631013814 -0.5 Z"/><text text-anchor="middle" pointer-events="none" font-size="8px" fill="#000000" x="120.00648631013813" y="3" font-family="sans-serif">ACTED_IN</text></g><g class="relationship" transform="translate(166.0115568420388 126.18630539095632) rotate(353.17902004069265)"><path class="outline" fill="#A5ABB6" stroke="none" d="M 25 0.5 L 71.22684212512335 0.5 L 71.22684212512335 -0.5 L 25 -0.5 Z M 116.78934212512335 0.5 L 163.0161842502467 0.5 L 163.0161842502467 3.5 L 170.0161842502467 0 L 163.0161842502467 -3.5 L 163.0161842502467 -0.5 L 116.78934212512335 -0.5 Z"/><text text-anchor="middle" pointer-events="none" font-size="8px" fill="#000000" x="94.00809212512335" y="3" font-family="sans-serif">ACTED_IN</text></g><g class="relationship" transform="translate(64.27244690006505 144.76988305390637) rotate(351.9556978695259)"><path class="outline" fill="#A5ABB6" stroke="none" d="M 25 0.5 L 122.20984330320513 0.5 L 122.20984330320513 -0.5 L 25 -0.5 Z M 169.10046830320513 0.5 L 266.31031160641027 0.5 L 266.31031160641027 3.5 L 273.31031160641027 0 L 266.31031160641027 -3.5 L 266.31031160641027 -0.5 L 169.10046830320513 -0.5 Z"/><text text-anchor="middle" pointer-events="none" font-size="8px" fill="#000000" x="145.65515580320513" y="3" font-family="sans-serif">DIRECTED</text></g><g class="relationship" transform="translate(109.89069566500334 106.02468195468849) rotate(359.3118205525577)"><path class="outline" fill="#A5ABB6" stroke="none" d="M 25 0.5 L 97.94206455883187 0.5 L 97.94206455883187 -0.5 L 25 -0.5 Z M 144.83268955883187 0.5 L 217.77475411766375 0.5 L 217.77475411766375 3.5 L 224.77475411766375 0 L 217.77475411766375 -3.5 L 217.77475411766375 -0.5 L 144.83268955883187 -0.5 Z"/><text text-anchor="middle" pointer-events="none" font-size="8px" fill="#000000" x="121.38737705883187" y="3" font-family="sans-serif">DIRECTED</text></g><g class="relationship" transform="translate(131.10396746030978 223.7845352920258) rotate(332.148525294655)"><path class="outline" fill="#A5ABB6" stroke="none" d="M 25 0.5 L 99.85241263006449 0.5 L 99.85241263006449 -0.5 L 25 -0.5 Z M 151.6336626300645 0.5 L 226.48607526012898 0.5 L 226.48607526012898 3.5 L 233.48607526012898 0 L 226.48607526012898 -3.5 L 226.48607526012898 -0.5 L 151.6336626300645 -0.5 Z"/><text text-anchor="middle" pointer-events="none" font-size="8px" fill="#000000" x="125.74303763006449" y="3" font-family="sans-serif">PRODUCED</text></g><g class="relationship" transform="translate(176.6578203322787 185.13236618724727) rotate(513.5397483431149)"><path class="outline" fill="#A5ABB6" stroke="none" d="M 25 0.5 L 108.32253697085207 0.5 L 108.32253697085207 -0.5 L 25 -0.5 Z M 153.88503697085207 0.5 L 237.20757394170414 0.5 L 237.20757394170414 3.5 L 244.20757394170414 0 L 237.20757394170414 -3.5 L 237.20757394170414 -0.5 L 153.88503697085207 -0.5 Z"/><text text-anchor="middle" pointer-events="none" font-size="8px" fill="#000000" x="131.10378697085207" y="3" transform="rotate(180 131.10378697085207 0)" font-family="sans-serif">ACTED_IN</text></g><g class="relationship" transform="translate(74.85213311707638 203.57521558224013) rotate(503.899214838856)"><path class="outline" fill="#A5ABB6" stroke="none" d="M 25 0.5 L 59.85973320360428 0.5 L 59.85973320360428 -0.5 L 25 -0.5 Z M 105.42223320360428 0.5 L 140.28196640720856 0.5 L 140.28196640720856 3.5 L 147.28196640720856 0 L 140.28196640720856 -3.5 L 140.28196640720856 -0.5 L 105.42223320360428 -0.5 Z"/><text text-anchor="middle" pointer-events="none" font-size="8px" fill="#000000" x="82.64098320360428" y="3" transform="rotate(180 82.64098320360428 0)" font-family="sans-serif">ACTED_IN</text></g><g class="relationship" transform="translate(120.51687009729703 164.92771832997246) rotate(502.832102947008)"><path class="outline" fill="#A5ABB6" stroke="none" d="M 25 0.5 L 89.71368524256582 0.5 L 89.71368524256582 -0.5 L 25 -0.5 Z M 135.27618524256582 0.5 L 199.98987048513163 0.5 L 199.98987048513163 3.5 L 206.98987048513163 0 L 199.98987048513163 -3.5 L 199.98987048513163 -0.5 L 135.27618524256582 -0.5 Z"/><text text-anchor="middle" pointer-events="none" font-size="8px" fill="#000000" x="112.49493524256582" y="3" transform="rotate(180 112.49493524256582 0)" font-family="sans-serif">ACTED_IN</text></g><g class="relationship" transform="translate(166.0115568420388 126.18630539095632) rotate(502.1669227087941)"><path class="outline" fill="#A5ABB6" stroke="none" d="M 25 0.5 L 119.5530206911231 0.5 L 119.5530206911231 -0.5 L 25 -0.5 Z M 165.1155206911231 0.5 L 259.6685413822462 0.5 L 259.6685413822462 3.5 L 266.6685413822462 0 L 259.6685413822462 -3.5 L 259.6685413822462 -0.5 L 165.1155206911231 -0.5 Z"/><text text-anchor="middle" pointer-events="none" font-size="8px" fill="#000000" x="142.3342706911231" y="3" transform="rotate(180 142.3342706911231 0)" font-family="sans-serif">ACTED_IN</text></g><g class="relationship" transform="translate(64.27244690006505 144.76988305390637) rotate(488.7401081300174)"><path class="outline" fill="#A5ABB6" stroke="none" d="M 25 0.5 L 75.82179106572342 0.5 L 75.82179106572342 -0.5 L 25 -0.5 Z M 122.71241606572342 0.5 L 173.53420713144683 0.5 L 173.53420713144683 3.5 L 180.53420713144683 0 L 173.53420713144683 -3.5 L 173.53420713144683 -0.5 L 122.71241606572342 -0.5 Z"/><text text-anchor="middle" pointer-events="none" font-size="8px" fill="#000000" x="99.26710356572342" y="3" transform="rotate(180 99.26710356572342 0)" font-family="sans-serif">DIRECTED</text></g><g class="relationship" transform="translate(109.89069566500334 106.02468195468849) rotate(491.1959416396163)"><path class="outline" fill="#A5ABB6" stroke="none" d="M 25 0.5 L 105.3274559650595 0.5 L 105.3274559650595 -0.5 L 25 -0.5 Z M 152.2180809650595 0.5 L 232.545536930119 0.5 L 232.545536930119 3.5 L 239.545536930119 0 L 232.545536930119 -3.5 L 232.545536930119 -0.5 L 152.2180809650595 -0.5 Z"/><text text-anchor="middle" pointer-events="none" font-size="8px" fill="#000000" x="128.7727684650595" y="3" transform="rotate(180 128.7727684650595 0)" font-family="sans-serif">DIRECTED</text></g><g class="relationship" transform="translate(131.10396746030978 223.7845352920258) rotate(517.414628029415)"><path class="outline" fill="#A5ABB6" stroke="none" d="M 25 0.5 L 76.45296443198491 0.5 L 76.45296443198491 -0.5 L 25 -0.5 Z M 128.23421443198492 0.5 L 179.68717886396982 0.5 L 179.68717886396982 3.5 L 186.68717886396982 0 L 179.68717886396982 -3.5 L 179.68717886396982 -0.5 L 128.23421443198492 -0.5 Z"/><text text-anchor="middle" pointer-events="none" font-size="8px" fill="#000000" x="102.34358943198491" y="3" transform="rotate(180 102.34358943198491 0)" font-family="sans-serif">PRODUCED</text></g></g><g class="layer nodes"><g class="node selected" transform="translate(-64.34856187639994,305.08503019377275)"><circle class="outline" cx="0" cy="0" r="25" fill="#57C7E3" stroke="#23b3d7" stroke-width="2px"/><text text-anchor="middle" pointer-events="none" font-family="sans-serif" dy="1.5625" font-size="25" fill="#2A2C34"/><text text-anchor="middle" pointer-events="none" font-family="sans-serif" dy="1.5625" font-size="25" fill="#2A2C34"/><text text-anchor="middle" pointer-events="none" font-family="sans-serif" dy="1.5625" font-size="25" fill="#2A2C34"/><text text-anchor="middle" pointer-events="none" x="0" y="-5" font-size="10px" fill="#2A2C34" font-family="sans-serif"> The</text><text text-anchor="middle" pointer-events="none" x="0" y="5" font-size="10px" fill="#2A2C34" font-family="sans-serif"> Matrix</text><text text-anchor="middle" pointer-events="none" x="0" y="15" font-size="10px" fill="#2A2C34" font-family="sans-serif"> Revol…</text></g><g class="node" transform="translate(359.64743323998107,103.02471021430681)"><circle class="outline" cx="0" cy="0" r="25" fill="#57C7E3" stroke="#23b3d7" stroke-width="2px"/><text text-anchor="middle" pointer-events="none" font-family="sans-serif" dy="1.5625" font-size="25" fill="#2A2C34"/><text text-anchor="middle" pointer-events="none" font-family="sans-serif" dy="1.5625" font-size="25" fill="#2A2C34"/><text text-anchor="middle" pointer-events="none" font-family="sans-serif" dy="1.5625" font-size="25" fill="#2A2C34"/><text text-anchor="middle" pointer-events="none" x="0" y="-5" font-size="10px" fill="#2A2C34" font-family="sans-serif"> The</text><text text-anchor="middle" pointer-events="none" x="0" y="5" font-size="10px" fill="#2A2C34" font-family="sans-serif"> Matrix</text><text text-anchor="middle" pointer-events="none" x="0" y="15" font-size="10px" fill="#2A2C34" font-family="sans-serif"> Reloa…</text></g><g class="node" transform="translate(15.448666144010092,55.92786764532439)"><circle class="outline" cx="0" cy="0" r="25" fill="#57C7E3" stroke="#23b3d7" stroke-width="2px"/><text text-anchor="middle" pointer-events="none" font-family="sans-serif" dy="1.5625" font-size="25" fill="#2A2C34"/><text text-anchor="middle" pointer-events="none" font-family="sans-serif" dy="1.5625" font-size="25" fill="#2A2C34"/><text text-anchor="middle" pointer-events="none" x="0" y="0" font-size="10px" fill="#2A2C34" font-family="sans-serif"> The</text><text text-anchor="middle" pointer-events="none" x="0" y="10" font-size="10px" fill="#2A2C34" font-family="sans-serif"> Matrix</text></g><g class="node" transform="translate(176.6578203322787,185.13236618724727)"><circle class="outline" cx="0" cy="0" r="25" fill="#F79767" stroke="#f36924" stroke-width="2px"/><text text-anchor="middle" pointer-events="none" font-family="sans-serif" dy="1.5625" font-size="25" fill="#FFFFFF"/><text text-anchor="middle" pointer-events="none" font-family="sans-serif" dy="1.5625" font-size="25" fill="#FFFFFF"/><text text-anchor="middle" pointer-events="none" x="0" y="0" font-size="10px" fill="#FFFFFF" font-family="sans-serif"> Keanu</text><text text-anchor="middle" pointer-events="none" x="0" y="10" font-size="10px" fill="#FFFFFF" font-family="sans-serif"> Reeves</text></g><g class="node" transform="translate(74.85213311707638,203.57521558224013)"><circle class="outline" cx="0" cy="0" r="25" fill="#F79767" stroke="#f36924" stroke-width="2px"/><text text-anchor="middle" pointer-events="none" font-family="sans-serif" dy="1.5625" font-size="25" fill="#FFFFFF"/><text text-anchor="middle" pointer-events="none" x="0" y="5" font-size="10px" fill="#FFFFFF" font-family="sans-serif"> Carrie-A…</text></g><g class="node" transform="translate(120.51687009729703,164.92771832997246)"><circle class="outline" cx="0" cy="0" r="25" fill="#F79767" stroke="#f36924" stroke-width="2px"/><text text-anchor="middle" pointer-events="none" font-family="sans-serif" dy="1.5625" font-size="25" fill="#FFFFFF"/><text text-anchor="middle" pointer-events="none" font-family="sans-serif" dy="1.5625" font-size="25" fill="#FFFFFF"/><text text-anchor="middle" pointer-events="none" x="0" y="0" font-size="10px" fill="#FFFFFF" font-family="sans-serif"> Laurence</text><text text-anchor="middle" pointer-events="none" x="0" y="10" font-size="10px" fill="#FFFFFF" font-family="sans-serif"> Fishbur…</text></g><g class="node" transform="translate(166.0115568420388,126.18630539095632)"><circle class="outline" cx="0" cy="0" r="25" fill="#F79767" stroke="#f36924" stroke-width="2px"/><text text-anchor="middle" pointer-events="none" font-family="sans-serif" dy="1.5625" font-size="25" fill="#FFFFFF"/><text text-anchor="middle" pointer-events="none" font-family="sans-serif" dy="1.5625" font-size="25" fill="#FFFFFF"/><text text-anchor="middle" pointer-events="none" x="0" y="0" font-size="10px" fill="#FFFFFF" font-family="sans-serif"> Hugo</text><text text-anchor="middle" pointer-events="none" x="0" y="10" font-size="10px" fill="#FFFFFF" font-family="sans-serif"> Weaving</text></g><g class="node" transform="translate(64.27244690006505,144.76988305390637)"><circle class="outline" cx="0" cy="0" r="25" fill="#F79767" stroke="#f36924" stroke-width="2px"/><text text-anchor="middle" pointer-events="none" font-family="sans-serif" dy="1.5625" font-size="25" fill="#FFFFFF"/><text text-anchor="middle" pointer-events="none" font-family="sans-serif" dy="1.5625" font-size="25" fill="#FFFFFF"/><text text-anchor="middle" pointer-events="none" x="0" y="0" font-size="10px" fill="#FFFFFF" font-family="sans-serif"> Lilly</text><text text-anchor="middle" pointer-events="none" x="0" y="10" font-size="10px" fill="#FFFFFF" font-family="sans-serif"> Wacho…</text></g><g class="node" transform="translate(109.89069566500334,106.02468195468849)"><circle class="outline" cx="0" cy="0" r="25" fill="#F79767" stroke="#f36924" stroke-width="2px"/><text text-anchor="middle" pointer-events="none" font-family="sans-serif" dy="1.5625" font-size="25" fill="#FFFFFF"/><text text-anchor="middle" pointer-events="none" font-family="sans-serif" dy="1.5625" font-size="25" fill="#FFFFFF"/><text text-anchor="middle" pointer-events="none" x="0" y="0" font-size="10px" fill="#FFFFFF" font-family="sans-serif"> Lana</text><text text-anchor="middle" pointer-events="none" x="0" y="10" font-size="10px" fill="#FFFFFF" font-family="sans-serif"> Wacho…</text></g><g class="node" transform="translate(131.10396746030978,223.7845352920258)"><circle class="outline" cx="0" cy="0" r="25" fill="#F79767" stroke="#f36924" stroke-width="2px"/><text text-anchor="middle" pointer-events="none" font-family="sans-serif" dy="1.5625" font-size="25" fill="#FFFFFF"/><text text-anchor="middle" pointer-events="none" x="0" y="5" font-size="10px" fill="#FFFFFF" font-family="sans-serif"> Joel Silver</text></g><g class="node" transform="translate(-18.33906635959577,-53.32439932622586)"><circle class="outline" cx="0" cy="0" r="25" fill="#F79767" stroke="#f36924" stroke-width="2px"/><text text-anchor="middle" pointer-events="none" font-family="sans-serif" dy="1.5625" font-size="25" fill="#FFFFFF"/><text text-anchor="middle" pointer-events="none" font-family="sans-serif" dy="1.5625" font-size="25" fill="#FFFFFF"/><text text-anchor="middle" pointer-events="none" x="0" y="0" font-size="10px" fill="#FFFFFF" font-family="sans-serif"> Emil</text><text text-anchor="middle" pointer-events="none" x="0" y="10" font-size="10px" fill="#FFFFFF" font-family="sans-serif"> Eifrem</text></g></g></svg>