<svg xmlns="http://www.w3.org/2000/svg" width="378.538818359375" height="351.9883728027344" viewBox="-74.40450286865234 -80.12411499023438 378.538818359375 351.9883728027344"><title>Neo4j Graph Visualization</title><desc>Created using Neo4j (http://www.neo4j.com/)</desc><g class="layer relationships"><g class="relationship" transform="translate(18.98771418657635 -27.131822859416303) rotate(385.2373529983401)"><path class="outline" fill="#A5ABB6" stroke="none" d="M 24.018736134675446,-6.953439040707552 L 24.277555179777966,-5.987513214418485 A 165.05406252609163 165.05406252609163 0 0 1 53.956379359185924,-11.095654284553348 L 53.877373059829765,-12.09252840131137 A 166.05406252609163 166.05406252609163 0 0 0 24.018736134675446,-6.953439040707552 Z M 75.93755812593994,-12.370717208194037 L 75.88371501028921,-11.372167800855067 A 165.05406252609163 165.05406252609163 0 0 1 105.6819128423341,-7.014058597665789 L 104.97877553900697,-4.097622770723964 L 112.60411932241955,-5.859477527726117 L 106.61942924677028,-10.90263970025489 L 105.91629194344316,-7.986203873313064 A 166.05406252609163 166.05406252609163 0 0 0 75.93755812593994,-12.370717208194037"/><text text-anchor="middle" pointer-events="none" font-size="8px" fill="#000000" x="64.90914518730158" y="-9.09843209846909" font-family="sans-serif">road</text></g><g class="relationship" transform="translate(142.82752207101314 31.241410094662793) rotate(377.4108243560926)"><path class="outline" fill="#A5ABB6" stroke="none" d="M 21.40063509461097,-12.933012701892217 L 21.90063509461097,-12.06698729810778 A 91.98083617312822 91.98083617312822 0 0 1 42.87915274059323,-20.92409870785268 L 42.607227614869174,-21.886417119814112 A 92.98083617312822 92.98083617312822 0 0 0 21.40063509461097,-12.933012701892217 Z M 88.81995964415496,-23.004040896161555 L 88.5948712568661,-22.029702547379316 A 91.98083617312822 91.98083617312822 0 0 1 109.97701946717324,-14.197055289913832 L 108.60436507403041,-11.529505868256248 L 116.4300771832314,-11.438786609523515 L 111.807225324697,-17.753787852123946 L 110.43457093155418,-15.086238430466361 A 92.98083617312822 92.98083617312822 0 0 0 88.81995964415496,-23.004040896161555"/><text text-anchor="middle" pointer-events="none" font-size="8px" fill="#000000" x="65.6551202736632" y="-21.86304937105146" font-family="sans-serif">twowheeler</text></g><g class="relationship" transform="translate(275.13432153941284 72.7312996155043) rotate(214.58887019025974)"><path class="outline" fill="#A5ABB6" stroke="none" d="M 21.40063509461097,12.933012701892217 L 21.90063509461097,12.06698729810778 A 40.35803124464842 40.35803124464842 0 0 0 23.23751150489635,12.805463951513907 L 22.770636916841777,13.68978748904351 A 41.35803124464842 41.35803124464842 0 0 1 21.40063509461097,12.933012701892217 Z M 58.6368639363378,15.015055253609717 L 58.23652541148248,14.098687933417274 A 40.35803124464842 40.35803124464842 0 0 0 59.62425571380368,13.460886309067751 L 58.320083697296184,10.759195106994728 L 66.14556385472531,10.868100137562438 L 61.36315173581367,17.063141245165117 L 60.05897971930618,14.361450043092093 A 41.35803124464842 41.35803124464842 0 0 1 58.6368639363378,15.015055253609717"/><text text-anchor="middle" pointer-events="none" font-size="8px" fill="#000000" x="40.57096387260247" y="20.946074531678455" transform="rotate(180 40.57096387260247 17.946074531678455)" font-family="sans-serif">twowh…</text></g><g class="relationship" transform="translate(202.14555507339608 22.400645084328442) rotate(465.090248100097)"><path class="outline" fill="#A5ABB6" stroke="none" d="M 25 0.5 L 58.81006298108609 0.5 L 58.81006298108609 -0.5 L 25 -0.5 Z M 78.14600048108609 0.5 L 111.95606346217218 0.5 L 111.95606346217218 3.5 L 118.95606346217218 0 L 111.95606346217218 -3.5 L 111.95606346217218 -0.5 L 78.14600048108609 -0.5 Z"/><text text-anchor="middle" pointer-events="none" font-size="8px" fill="#000000" x="68.47803173108609" y="3" transform="rotate(180 68.47803173108609 0)" font-family="sans-serif">trek</text></g><g class="relationship" transform="translate(18.98771418657635 -27.131822859416303) rotate(385.2373529983401)"><path class="outline" fill="#A5ABB6" stroke="none" d="M 24.018736134675446,6.953439040707552 L 24.277555179777966,5.987513214418485 A 165.05406252609163 165.05406252609163 0 0 0 55.28647121749232,11.195662949627348 L 55.21552344052543,12.193142980978081 A 166.05406252609163 166.05406252609163 0 0 1 24.018736134675446,6.953439040707552 Z M 74.59729608570012,12.437555808489464 L 74.55152420913774,11.438603890068975 A 165.05406252609163 165.05406252609163 0 0 0 105.6819128423341,7.014058597665789 L 104.97877553900697,4.097622770723964 L 112.60411932241955,5.859477527726117 L 106.61942924677028,10.90263970025489 L 105.91629194344316,7.986203873313064 A 166.05406252609163 166.05406252609163 0 0 1 74.59729608570012,12.437555808489464"/><text text-anchor="middle" pointer-events="none" font-size="8px" fill="#000000" x="64.90914518730162" y="15.09843209846909" font-family="sans-serif">trek</text></g><g class="relationship" transform="translate(142.82752207101314 31.241410094662793) rotate(377.4108243560926)"><path class="outline" fill="#A5ABB6" stroke="none" d="M 25 0.5 L 54.823968473522314 0.5 L 54.823968473522314 -0.5 L 25 -0.5 Z M 76.83568722352231 0.5 L 106.65965569704463 0.5 L 106.65965569704463 3.5 L 113.65965569704463 0 L 106.65965569704463 -3.5 L 106.65965569704463 -0.5 L 76.83568722352231 -0.5 Z"/><text text-anchor="middle" pointer-events="none" font-size="8px" fill="#000000" x="65.82982784852231" y="3" font-family="sans-serif">road</text></g><g class="relationship" transform="translate(142.82752207101314 31.241410094662793) rotate(377.4108243560926)"><path class="outline" fill="#A5ABB6" stroke="none" d="M 21.40063509461097,12.933012701892217 L 21.90063509461097,12.06698729810778 A 91.98083617312822 91.98083617312822 0 0 0 56.08396158729977,23.629128177077874 L 55.95559689651079,24.62085520915811 A 92.98083617312822 92.98083617312822 0 0 1 21.40063509461097,12.933012701892217 Z M 75.35501189460238,25.090016985513557 L 75.27473773252098,24.093244163401053 A 91.98083617312822 91.98083617312822 0 0 0 109.97701946717324,14.197055289913832 L 108.60436507403041,11.529505868256248 L 116.4300771832314,11.438786609523515 L 111.807225324697,17.753787852123946 L 110.43457093155418,15.086238430466361 A 92.98083617312822 92.98083617312822 0 0 1 75.35501189460238,25.090016985513557"/><text text-anchor="middle" pointer-events="none" font-size="8px" fill="#000000" x="65.65512027366319" y="27.86304937105146" font-family="sans-serif">trek</text></g><g class="relationship" transform="translate(275.13432153941284 72.7312996155043) rotate(214.58887019025974)"><path class="outline" fill="#A5ABB6" stroke="none" d="M 25 0.5 L 29.82396922766692 0.5 L 29.82396922766692 -0.5 L 25 -0.5 Z M 51.83568797766692 0.5 L 56.65965720533384 0.5 L 56.65965720533384 3.5 L 63.65965720533384 0 L 56.65965720533384 -3.5 L 56.65965720533384 -0.5 L 51.83568797766692 -0.5 Z"/><text text-anchor="middle" pointer-events="none" font-size="8px" fill="#000000" x="40.82982860266692" y="3" transform="rotate(180 40.82982860266692 0)" font-family="sans-serif">road</text></g><g class="relationship" transform="translate(275.13432153941284 72.7312996155043) rotate(214.58887019025974)"><path class="outline" fill="#A5ABB6" stroke="none" d="M 21.40063509461097,-12.933012701892217 L 21.90063509461097,-12.06698729810778 A 40.35803124464842 40.35803124464842 0 0 1 31.176612470100928,-15.973267209208707 L 30.906454637556013,-16.93608325888519 A 41.35803124464842 41.35803124464842 0 0 0 21.40063509461097,-12.933012701892217 Z M 50.28365589641533,-17.652076613355376 L 50.085290429477354,-16.67194848829903 A 40.35803124464842 40.35803124464842 0 0 1 59.62425571380368,-13.460886309067751 L 58.320083697296184,-10.759195106994728 L 66.14556385472531,-10.868100137562438 L 61.36315173581367,-17.063141245165117 L 60.05897971930618,-14.361450043092093 A 41.35803124464842 41.35803124464842 0 0 0 50.28365589641533,-17.652076613355376"/><text text-anchor="middle" pointer-events="none" font-size="8px" fill="#000000" x="40.570963872602455" y="-14.946074531678455" transform="rotate(180 40.570963872602455 -17.946074531678455)" font-family="sans-serif">trek</text></g><g class="relationship" transform="translate(18.98771418657635 -27.131822859416303) rotate(343.6213062193224)"><path class="outline" fill="#A5ABB6" stroke="none" d="M 21.40063509461097,12.933012701892217 L 21.90063509461097,12.06698729810778 A 36.592904182947365 36.592904182947365 0 0 0 29.41729952745255,15.345686373987675 L 29.122712697045806,16.3013110907834 A 37.592904182947365 37.592904182947365 0 0 1 21.40063509461097,12.933012701892217 Z M 48.48389546372052,17.044780345233967 L 48.26346002629574,16.06937877771044 A 36.592904182947365 36.592904182947365 0 0 0 56.00942284297044,13.376764459094778 L 54.71307842784846,10.671308645857003 L 62.5382104763789,10.802870126016462 L 57.73788206313307,16.984038876745142 L 56.44153764801109,14.278583063507368 A 37.592904182947365 37.592904182947365 0 0 1 48.48389546372052,17.044780345233967"/><text text-anchor="middle" pointer-events="none" font-size="8px" fill="#000000" x="38.77376897628191" y="20.442189223424727" font-family="sans-serif">trek</text></g><g class="relationship" transform="translate(100.61860068906043 -51.12411787594808) rotate(395.91166451697154)"><path class="outline" fill="#A5ABB6" stroke="none" d="M 25 0.5 L 49.50900715607699 0.5 L 49.50900715607699 -0.5 L 25 -0.5 Z M 68.84494465607699 0.5 L 93.35395181215398 0.5 L 93.35395181215398 3.5 L 100.35395181215398 0 L 93.35395181215398 -3.5 L 93.35395181215398 -0.5 L 68.84494465607699 -0.5 Z"/><text text-anchor="middle" pointer-events="none" font-size="8px" fill="#000000" x="59.17697590607699" y="3" font-family="sans-serif">trek</text></g><g class="relationship" transform="translate(18.98771418657635 -27.131822859416303) rotate(343.6213062193224)"><path class="outline" fill="#A5ABB6" stroke="none" d="M 25 0.5 L 28.035978418346836 0.5 L 28.035978418346836 -0.5 L 25 -0.5 Z M 50.047697168346836 0.5 L 53.08367558669367 0.5 L 53.08367558669367 3.5 L 60.08367558669367 0 L 53.08367558669367 -3.5 L 53.08367558669367 -0.5 L 50.047697168346836 -0.5 Z"/><text text-anchor="middle" pointer-events="none" font-size="8px" fill="#000000" x="39.041837793346836" y="3" font-family="sans-serif">road</text></g><g class="relationship" transform="translate(18.98771418657635 -27.131822859416303) rotate(343.6213062193224)"><path class="outline" fill="#A5ABB6" stroke="none" d="M 21.40063509461097,-12.933012701892217 L 21.90063509461097,-12.06698729810778 A 36.592904182947365 36.592904182947365 0 0 1 21.989217383373845,-12.117965499300361 L 21.49163813381005,-12.985384020202197 A 37.592904182947365 37.592904182947365 0 0 0 21.40063509461097,-12.933012701892217 Z M 56.34678639817565,-14.323821418689846 L 55.917192048840526,-13.4207994394339 A 36.592904182947365 36.592904182947365 0 0 1 56.00942284297044,-13.376764459094778 L 54.71307842784846,-10.671308645857003 L 62.5382104763789,-10.802870126016462 L 57.73788206313307,-16.984038876745142 L 56.44153764801109,-14.278583063507368 A 37.592904182947365 37.592904182947365 0 0 0 56.34678639817565,-14.323821418689846"/><text text-anchor="middle" pointer-events="none" font-size="8px" fill="#000000" x="38.7737689762819" y="-14.442189223424727" font-family="sans-serif">Public…</text></g><g class="relationship" transform="translate(100.61860068906043 -51.12411787594808) rotate(492.32792763223745)"><path class="outline" fill="#A5ABB6" stroke="none" d="M 24.018736134675446,-6.953439040707552 L 24.277555179777966,-5.987513214418485 A 185.38054834019016 185.38054834019016 0 0 1 46.9855856741418,-10.57352299649881 L 46.84926076716586,-11.564187177610648 A 186.38054834019016 186.38054834019016 0 0 0 24.018736134675446,-6.953439040707552 Z M 93.31466901575214,-12.110876581317427 L 93.2016899655159,-11.117279211047304 A 185.38054834019016 185.38054834019016 0 0 1 116.0113330935947,-7.066808247815725 L 115.30326913860733,-4.15156461551882 L 122.93157889478536,-5.900532958228029 L 116.95541836691118,-10.953799757544932 L 116.24735441192381,-8.038556125248027 A 186.38054834019016 186.38054834019016 0 0 0 93.31466901575214,-12.110876581317427"/><text text-anchor="middle" pointer-events="none" font-size="8px" fill="#000000" x="70.07074287136084" y="-9.791338084047084" transform="rotate(180 70.07074287136084 -12.791338084047084)" font-family="sans-serif">twowheeler</text></g><g class="relationship" transform="translate(1.4810821984338003 57.71996451218561) rotate(423.0337493305726)"><path class="outline" fill="#A5ABB6" stroke="none" d="M 24.018736134675446,-6.953439040707552 L 24.277555179777966,-5.987513214418485 A 114.06158253746617 114.06158253746617 0 0 1 29.112836377093686,-7.1706664083058484 L 28.89640917935772,-8.146965167948693 A 115.06158253746617 115.06158253746617 0 0 0 24.018736134675446,-6.953439040707552 Z M 75.23936586825991,-8.85881474100087 L 75.05302651553745,-7.87632929804154 A 114.06158253746617 114.06158253746617 0 0 1 79.9223655428233,-6.842243627184509 L 79.23527616776833,-3.9219853867738124 L 86.85081633295742,-5.725744792124706 L 80.83848470956325,-10.735921281065437 L 80.15139533450828,-7.815663040654741 A 115.06158253746617 115.06158253746617 0 0 0 75.23936586825991,-8.85881474100087"/><text text-anchor="middle" pointer-events="none" font-size="8px" fill="#000000" x="52.03935292078948" y="-7.360554722313438" font-family="sans-serif">twowheeler</text></g><g class="relationship" transform="translate(51.90024355744162 156.81740063867076) rotate(362.323355909205)"><path class="outline" fill="#A5ABB6" stroke="none" d="M 24.018736134675446,6.953439040707552 L 24.277555179777966,5.987513214418485 A 117.39880642957397 117.39880642957397 0 0 0 29.937316372465556,7.354561259122605 L 29.726707026974275,8.332131565336809 A 118.39880642957397 118.39880642957397 0 0 1 24.018736134675446,6.953439040707552 Z M 76.08189198481492,9.034203238758565 L 75.90098399701776,8.05070321336396 A 117.39880642957397 117.39880642957397 0 0 0 81.59954895885572,6.855682506223701 L 80.91120430812133,3.935719896564914 L 88.52751915651528,5.736205422786591 L 82.51734182650158,10.74896598576875 L 81.82899717576719,7.829003376109963 A 118.39880642957397 118.39880642957397 0 0 1 76.08189198481492,9.034203238758565"/><text text-anchor="middle" pointer-events="none" font-size="8px" fill="#000000" x="52.87717253225586" y="13.474260716269313" font-family="sans-serif">twowheeler</text></g><g class="relationship" transform="translate(100.61860068906043 -51.12411787594808) rotate(492.32792763223745)"><path class="outline" fill="#A5ABB6" stroke="none" d="M 24.018736134675446,6.953439040707552 L 24.277555179777966,5.987513214418485 A 185.38054834019016 185.38054834019016 0 0 0 60.44262530998982,11.927315318122623 L 60.378891835914125,12.925282273628795 A 186.38054834019016 186.38054834019016 0 0 1 24.018736134675446,6.953439040707552 Z M 79.756759636149,13.153272845370765 L 79.71652374232228,12.154082636827866 A 185.38054834019016 185.38054834019016 0 0 0 116.0113330935947,7.066808247815725 L 115.30326913860733,4.15156461551882 L 122.93157889478536,5.900532958228029 L 116.95541836691118,10.953799757544932 L 116.24735441192381,8.038556125248027 A 186.38054834019016 186.38054834019016 0 0 1 79.756759636149,13.153272845370765"/><text text-anchor="middle" pointer-events="none" font-size="8px" fill="#000000" x="70.07074287136082" y="15.791338084047084" transform="rotate(180 70.07074287136082 12.791338084047084)" font-family="sans-serif">trek</text></g><g class="relationship" transform="translate(1.4810821984338003 57.71996451218561) rotate(423.0337493305726)"><path class="outline" fill="#A5ABB6" stroke="none" d="M 24.018736134675446,6.953439040707552 L 24.277555179777966,5.987513214418485 A 114.06158253746617 114.06158253746617 0 0 0 42.4400489469187,9.307074626338832 L 42.340464004684904,10.302103690879306 A 115.06158253746617 115.06158253746617 0 0 1 24.018736134675446,6.953439040707552 Z M 61.735461373751804,10.600019956541828 L 61.66648442989515,9.602401702290138 A 114.06158253746617 114.06158253746617 0 0 0 79.9223655428233,6.842243627184509 L 79.23527616776833,3.9219853867738124 L 86.85081633295742,5.725744792124706 L 80.83848470956325,10.735921281065437 L 80.15139533450828,7.815663040654741 A 115.06158253746617 115.06158253746617 0 0 1 61.735461373751804,10.600019956541828"/><text text-anchor="middle" pointer-events="none" font-size="8px" fill="#000000" x="52.03935292078947" y="13.360554722313438" font-family="sans-serif">trek</text></g><g class="relationship" transform="translate(51.90024355744162 156.81740063867076) rotate(362.323355909205)"><path class="outline" fill="#A5ABB6" stroke="none" d="M 24.018736134675446,-6.953439040707552 L 24.277555179777966,-5.987513214418485 A 117.39880642957397 117.39880642957397 0 0 1 43.275639232067334,-9.43424284658549 L 43.17864537607937,-10.429527826830139 A 118.39880642957397 118.39880642957397 0 0 0 24.018736134675446,-6.953439040707552 Z M 62.57260599441751,-10.723258730891388 L 62.50579785608491,-9.72549289029925 A 117.39880642957397 117.39880642957397 0 0 1 81.59954895885572,-6.855682506223701 L 80.91120430812133,-3.935719896564914 L 88.52751915651528,-5.736205422786591 L 82.51734182650158,-10.74896598576875 L 81.82899717576719,-7.829003376109963 A 118.39880642957397 118.39880642957397 0 0 0 62.57260599441751,-10.723258730891388"/><text text-anchor="middle" pointer-events="none" font-size="8px" fill="#000000" x="52.877172532255834" y="-7.474260716269313" font-family="sans-serif">trek</text></g><g class="relationship" transform="translate(100.61860068906043 -51.12411787594808) rotate(422.8667399999683)"><path class="outline" fill="#A5ABB6" stroke="none" d="M 25 0.5 L 33.10749246354531 0.5 L 33.10749246354531 -0.5 L 25 -0.5 Z M 52.44342996354531 0.5 L 60.550922427090626 0.5 L 60.550922427090626 3.5 L 67.55092242709063 0 L 60.550922427090626 -3.5 L 60.550922427090626 -0.5 L 52.44342996354531 -0.5 Z"/><text text-anchor="middle" pointer-events="none" font-size="8px" fill="#000000" x="42.77546121354531" y="3" font-family="sans-serif">trek</text></g><g class="relationship" transform="translate(1.4810821984338003 57.71996451218561) rotate(471.5993749143487)"><path class="outline" fill="#A5ABB6" stroke="none" d="M 24.018736134675446,-6.953439040707552 L 24.277555179777966,-5.987513214418485 A 146.20078320352852 146.20078320352852 0 0 1 37.11271398457515,-8.81509323830926 L 36.94168625305902,-9.800359453629994 A 147.20078320352852 147.20078320352852 0 0 0 24.018736134675446,-6.953439040707552 Z M 83.36602189821078,-10.427434225249954 L 83.22166859278661,-9.43790801376636 A 146.20078320352852 146.20078320352852 0 0 1 96.12851756932163,-6.958037083095629 L 95.43061264961506,-4.0403447204485055 L 103.05278390211602,-5.815874330888136 L 97.05905746226372,-10.848293566625127 L 96.36115254255715,-7.930601203978004 A 147.20078320352852 147.20078320352852 0 0 0 83.36602189821078,-10.427434225249954"/><text text-anchor="middle" pointer-events="none" font-size="8px" fill="#000000" x="60.1357283336945" y="-8.455803045432475" transform="rotate(180 60.1357283336945 -11.455803045432475)" font-family="sans-serif">twowheeler</text></g><g class="relationship" transform="translate(-45.40450410588432 176.14321257461637) rotate(348.7666002552937)"><path class="outline" fill="#A5ABB6" stroke="none" d="M 21.40063509461097,12.933012701892217 L 21.90063509461097,12.06698729810778 A 51.382116449615204 51.382116449615204 0 0 0 23.817623417196188,13.120009433406295 L 23.354931890553157,14.006528779598327 A 52.382116449615204 52.382116449615204 0 0 1 21.40063509461097,12.933012701892217 Z M 68.69035486335098,15.513869056437848 L 68.28757118498956,14.59857385354119 A 51.382116449615204 51.382116449615204 0 0 0 70.27027158254148,13.675210988842778 L 68.94615845738278,10.983236911742027 L 76.77222994996968,11.034276042989248 L 72.03575574941976,17.264509758310446 L 70.71164262426106,14.572535681209693 A 52.382116449615204 52.382116449615204 0 0 1 68.69035486335098,15.513869056437848"/><text text-anchor="middle" pointer-events="none" font-size="8px" fill="#000000" x="45.86763719878021" y="22.422232274913604" font-family="sans-serif">twowheeler</text></g><g class="relationship" transform="translate(1.4810821984338003 57.71996451218561) rotate(471.5993749143487)"><path class="outline" fill="#A5ABB6" stroke="none" d="M 24.018736134675446,6.953439040707552 L 24.277555179777966,5.987513214418485 A 146.20078320352852 146.20078320352852 0 0 0 50.519601600328954,10.50846740763265 L 50.44027575523221,11.505316147562496 A 147.20078320352852 147.20078320352852 0 0 1 24.018736134675446,6.953439040707552 Z M 69.82630631092393,11.767172144301952 L 69.77393427959778,10.76854450081575 A 146.20078320352852 146.20078320352852 0 0 0 96.12851756932163,6.958037083095629 L 95.43061264961506,4.0403447204485055 L 103.05278390211602,5.815874330888136 L 97.05905746226372,10.848293566625127 L 96.36115254255715,7.930601203978004 A 147.20078320352852 147.20078320352852 0 0 1 69.82630631092393,11.767172144301952"/><text text-anchor="middle" pointer-events="none" font-size="8px" fill="#000000" x="60.13572833369453" y="14.455803045432475" transform="rotate(180 60.13572833369453 11.455803045432475)" font-family="sans-serif">trek</text></g><g class="relationship" transform="translate(-45.40450410588432 176.14321257461637) rotate(348.7666002552937)"><path class="outline" fill="#A5ABB6" stroke="none" d="M 25 0.5 L 35.096814254571306 0.5 L 35.096814254571306 -0.5 L 25 -0.5 Z M 57.108533004571306 0.5 L 67.20534725914261 0.5 L 67.20534725914261 3.5 L 74.20534725914261 0 L 67.20534725914261 -3.5 L 67.20534725914261 -0.5 L 57.108533004571306 -0.5 Z"/><text text-anchor="middle" pointer-events="none" font-size="8px" fill="#000000" x="46.102673629571306" y="3" font-family="sans-serif">road</text></g><g class="relationship" transform="translate(-45.40450410588432 176.14321257461637) rotate(348.7666002552937)"><path class="outline" fill="#A5ABB6" stroke="none" d="M 21.40063509461097,-12.933012701892217 L 21.90063509461097,-12.06698729810778 A 51.382116449615204 51.382116449615204 0 0 1 36.39958979490208,-17.717136120342573 L 36.18176880390628,-18.69312485792186 A 52.382116449615204 52.382116449615204 0 0 0 21.40063509461097,-12.933012701892217 Z M 55.580544445936596,-19.338107388781907 L 55.42803340461198,-18.349805621974788 A 51.382116449615204 51.382116449615204 0 0 1 70.27027158254148,-13.675210988842778 L 68.94615845738278,-10.983236911742027 L 76.77222994996968,-11.034276042989248 L 72.03575574941976,-17.264509758310446 L 70.71164262426106,-14.572535681209693 A 52.382116449615204 52.382116449615204 0 0 0 55.580544445936596,-19.338107388781907"/><text text-anchor="middle" pointer-events="none" font-size="8px" fill="#000000" x="45.8676371987802" y="-16.422232274913604" font-family="sans-serif">trek</text></g><g class="relationship" transform="translate(-45.40450410588432 176.14321257461637) rotate(391.3500594980285)"><path class="outline" fill="#A5ABB6" stroke="none" d="M 25 0.5 L 50.954166780254454 0.5 L 50.954166780254454 -0.5 L 25 -0.5 Z M 70.29010428025445 0.5 L 96.24427106050891 0.5 L 96.24427106050891 3.5 L 103.24427106050891 0 L 96.24427106050891 -3.5 L 96.24427106050891 -0.5 L 70.29010428025445 -0.5 Z"/><text text-anchor="middle" pointer-events="none" font-size="8px" fill="#000000" x="60.622135530254454" y="3" font-family="sans-serif">trek</text></g><g class="relationship" transform="translate(64.1166931268348 242.86427683885847) rotate(320.98391062547586)"><path class="outline" fill="#A5ABB6" stroke="none" d="M 25 0.5 L 51.53943109892111 0.5 L 51.53943109892111 -0.5 L 25 -0.5 Z M 70.87536859892111 0.5 L 97.41479969784223 0.5 L 97.41479969784223 3.5 L 104.41479969784223 0 L 97.41479969784223 -3.5 L 97.41479969784223 -0.5 L 70.87536859892111 -0.5 Z"/><text text-anchor="middle" pointer-events="none" font-size="8px" fill="#000000" x="61.20739984892111" y="3" font-family="sans-serif">trek</text></g></g><g class="layer nodes"><g class="node" transform="translate(18.98771418657635,-27.131822859416303)"><circle class="outline" cx="0" cy="0" r="25" fill="#F16667" stroke="#eb2728" stroke-width="2px"/><text text-anchor="middle" pointer-events="none" font-family="sans-serif" dy="1.5625" font-size="25" fill="#FFFFFF"/><text text-anchor="middle" pointer-events="none" x="0" y="5" font-size="10px" fill="#FFFFFF" font-family="sans-serif"> Darjeeling</text></g><g class="node" transform="translate(164.66800777776433,161.39266520141513)"><circle class="outline" cx="0" cy="0" r="25" fill="#8DCC93" stroke="#5db665" stroke-width="2px"/><text text-anchor="middle" pointer-events="none" font-family="sans-serif" dy="1.5625" font-size="25" fill="#2A2C34"/><text text-anchor="middle" pointer-events="none" x="0" y="5" font-size="10px" fill="#2A2C34" font-family="sans-serif"> Sandak…</text></g><g class="node" transform="translate(142.82752207101314,31.241410094662793)"><circle class="outline" cx="0" cy="0" r="25" fill="#D9C8AE" stroke="#c0a378" stroke-width="2px"/><text text-anchor="middle" pointer-events="none" font-family="sans-serif" dy="1.5625" font-size="25" fill="#2A2C34"/><text text-anchor="middle" pointer-events="none" x="0" y="5" font-size="10px" fill="#2A2C34" font-family="sans-serif"> Tumbling</text></g><g class="node" transform="translate(275.13432153941284,72.7312996155043)"><circle class="outline" cx="0" cy="0" r="25" fill="#D9C8AE" stroke="#c0a378" stroke-width="2px"/><text text-anchor="middle" pointer-events="none" font-family="sans-serif" dy="1.5625" font-size="25" fill="#2A2C34"/><text text-anchor="middle" pointer-events="none" x="0" y="5" font-size="10px" fill="#2A2C34" font-family="sans-serif"> Gairibus</text></g><g class="node" transform="translate(202.14555507339608,22.400645084328442)"><circle class="outline" cx="0" cy="0" r="25" fill="#D9C8AE" stroke="#c0a378" stroke-width="2px"/><text text-anchor="middle" pointer-events="none" font-family="sans-serif" dy="1.5625" font-size="25" fill="#2A2C34"/><text text-anchor="middle" pointer-events="none" x="0" y="5" font-size="10px" fill="#2A2C34" font-family="sans-serif"> BhikeBh…</text></g><g class="node" transform="translate(100.61860068906043,-51.12411787594808)"><circle class="outline" cx="0" cy="0" r="25" fill="#F16667" stroke="#eb2728" stroke-width="2px"/><text text-anchor="middle" pointer-events="none" font-family="sans-serif" dy="1.5625" font-size="25" fill="#FFFFFF"/><text text-anchor="middle" pointer-events="none" x="0" y="5" font-size="10px" fill="#FFFFFF" font-family="sans-serif"> Rimbik</text></g><g class="node" transform="translate(1.4810821984338003,57.71996451218561)"><circle class="outline" cx="0" cy="0" r="25" fill="#D9C8AE" stroke="#c0a378" stroke-width="2px"/><text text-anchor="middle" pointer-events="none" font-family="sans-serif" dy="1.5625" font-size="25" fill="#2A2C34"/><text text-anchor="middle" pointer-events="none" x="0" y="5" font-size="10px" fill="#2A2C34" font-family="sans-serif"> Sirikhola</text></g><g class="node" transform="translate(51.90024355744162,156.81740063867076)"><circle class="outline" cx="0" cy="0" r="25" fill="#D9C8AE" stroke="#c0a378" stroke-width="2px"/><text text-anchor="middle" pointer-events="none" font-family="sans-serif" dy="1.5625" font-size="25" fill="#2A2C34"/><text text-anchor="middle" pointer-events="none" x="0" y="5" font-size="10px" fill="#2A2C34" font-family="sans-serif"> Gurdum</text></g><g class="node" transform="translate(-45.40450410588432,176.14321257461637)"><circle class="outline" cx="0" cy="0" r="25" fill="#D9C8AE" stroke="#c0a378" stroke-width="2px"/><text text-anchor="middle" pointer-events="none" font-family="sans-serif" dy="1.5625" font-size="25" fill="#2A2C34"/><text text-anchor="middle" pointer-events="none" x="0" y="5" font-size="10px" fill="#2A2C34" font-family="sans-serif"> Rammam</text></g><g class="node" transform="translate(64.1166931268348,242.86427683885847)"><circle class="outline" cx="0" cy="0" r="25" fill="#8DCC93" stroke="#5db665" stroke-width="2px"/><text text-anchor="middle" pointer-events="none" font-family="sans-serif" dy="1.5625" font-size="25" fill="#2A2C34"/><text text-anchor="middle" pointer-events="none" x="0" y="5" font-size="10px" fill="#2A2C34" font-family="sans-serif"> Sabargr…</text></g></g></svg>